<?xml version="1.0" encoding="utf-8" standalone="no"?>
<!DOCTYPE svg PUBLIC "-//W3C//DTD SVG 1.1//EN"
  "http://www.w3.org/Graphics/SVG/1.1/DTD/svg11.dtd">
<svg xmlns:xlink="http://www.w3.org/1999/xlink" width="421.468281pt" height="422.103594pt" viewBox="0 0 421.468281 422.103594" xmlns="http://www.w3.org/2000/svg" version="1.1">
 <metadata>
  <rdf:RDF xmlns:dc="http://purl.org/dc/elements/1.1/" xmlns:cc="http://creativecommons.org/ns#" xmlns:rdf="http://www.w3.org/1999/02/22-rdf-syntax-ns#">
   <cc:Work>
    <dc:type rdf:resource="http://purl.org/dc/dcmitype/StillImage"/>
    <dc:date>2022-04-06T15:49:28.305014</dc:date>
    <dc:format>image/svg+xml</dc:format>
    <dc:creator>
     <cc:Agent>
      <dc:title>Matplotlib v3.5.1, https://matplotlib.org/</dc:title>
     </cc:Agent>
    </dc:creator>
   </cc:Work>
  </rdf:RDF>
 </metadata>
 <defs>
  <style type="text/css">*{stroke-linejoin: round; stroke-linecap: butt}</style>
 </defs>
 <g id="figure_1">
  <g id="patch_1">
   <path d="M 0 422.103594 
L 421.468281 422.103594 
L 421.468281 0 
L 0 0 
z
" style="fill: #ffffff"/>
  </g>
  <g id="axes_1">
   <g id="patch_2">
    <path d="M 53.235156 187.575938 
L 214.771719 187.575938 
L 214.771719 21.789375 
L 53.235156 21.789375 
z
" style="fill: #eaeaf2"/>
   </g>
   <g id="matplotlib.axis_1">
    <g id="xtick_1">
     <g id="line2d_1">
      <path d="M 60.577727 187.575938 
L 60.577727 21.789375 
" clip-path="url(#p9dfd954492)" style="fill: none; stroke: #ffffff; stroke-linecap: round"/>
     </g>
    </g>
    <g id="xtick_2">
     <g id="line2d_2">
      <path d="M 101.369789 187.575938 
L 101.369789 21.789375 
" clip-path="url(#p9dfd954492)" style="fill: none; stroke: #ffffff; stroke-linecap: round"/>
     </g>
    </g>
    <g id="xtick_3">
     <g id="line2d_3">
      <path d="M 142.16185 187.575938 
L 142.16185 21.789375 
" clip-path="url(#p9dfd954492)" style="fill: none; stroke: #ffffff; stroke-linecap: round"/>
     </g>
    </g>
    <g id="xtick_4">
     <g id="line2d_4">
      <path d="M 182.953911 187.575938 
L 182.953911 21.789375 
" clip-path="url(#p9dfd954492)" style="fill: none; stroke: #ffffff; stroke-linecap: round"/>
     </g>
    </g>
   </g>
   <g id="matplotlib.axis_2">
    <g id="ytick_1">
     <g id="line2d_5">
      <path d="M 53.235156 180.040185 
L 214.771719 180.040185 
" clip-path="url(#p9dfd954492)" style="fill: none; stroke: #ffffff; stroke-linecap: round"/>
     </g>
     <g id="text_1">
      <!-- 0 -->
      <g style="fill: #262626" transform="translate(37.618125 183.976982)scale(0.11 -0.11)">
       <defs>
        <path id="ArialMT-30" d="M 266 2259 
Q 266 3072 433 3567 
Q 600 4063 929 4331 
Q 1259 4600 1759 4600 
Q 2128 4600 2406 4451 
Q 2684 4303 2865 4023 
Q 3047 3744 3150 3342 
Q 3253 2941 3253 2259 
Q 3253 1453 3087 958 
Q 2922 463 2592 192 
Q 2263 -78 1759 -78 
Q 1097 -78 719 397 
Q 266 969 266 2259 
z
M 844 2259 
Q 844 1131 1108 757 
Q 1372 384 1759 384 
Q 2147 384 2411 759 
Q 2675 1134 2675 2259 
Q 2675 3391 2411 3762 
Q 2147 4134 1753 4134 
Q 1366 4134 1134 3806 
Q 844 3388 844 2259 
z
" transform="scale(0.015625)"/>
       </defs>
       <use xlink:href="#ArialMT-30"/>
      </g>
     </g>
    </g>
    <g id="ytick_2">
     <g id="line2d_6">
      <path d="M 53.235156 147.56109 
L 214.771719 147.56109 
" clip-path="url(#p9dfd954492)" style="fill: none; stroke: #ffffff; stroke-linecap: round"/>
     </g>
     <g id="text_2">
      <!-- 2 -->
      <g style="fill: #262626" transform="translate(37.618125 151.497887)scale(0.11 -0.11)">
       <defs>
        <path id="ArialMT-32" d="M 3222 541 
L 3222 0 
L 194 0 
Q 188 203 259 391 
Q 375 700 629 1000 
Q 884 1300 1366 1694 
Q 2113 2306 2375 2664 
Q 2638 3022 2638 3341 
Q 2638 3675 2398 3904 
Q 2159 4134 1775 4134 
Q 1369 4134 1125 3890 
Q 881 3647 878 3216 
L 300 3275 
Q 359 3922 746 4261 
Q 1134 4600 1788 4600 
Q 2447 4600 2831 4234 
Q 3216 3869 3216 3328 
Q 3216 3053 3103 2787 
Q 2991 2522 2730 2228 
Q 2469 1934 1863 1422 
Q 1356 997 1212 845 
Q 1069 694 975 541 
L 3222 541 
z
" transform="scale(0.015625)"/>
       </defs>
       <use xlink:href="#ArialMT-32"/>
      </g>
     </g>
    </g>
    <g id="ytick_3">
     <g id="line2d_7">
      <path d="M 53.235156 115.081995 
L 214.771719 115.081995 
" clip-path="url(#p9dfd954492)" style="fill: none; stroke: #ffffff; stroke-linecap: round"/>
     </g>
     <g id="text_3">
      <!-- 4 -->
      <g style="fill: #262626" transform="translate(37.618125 119.018792)scale(0.11 -0.11)">
       <defs>
        <path id="ArialMT-34" d="M 2069 0 
L 2069 1097 
L 81 1097 
L 81 1613 
L 2172 4581 
L 2631 4581 
L 2631 1613 
L 3250 1613 
L 3250 1097 
L 2631 1097 
L 2631 0 
L 2069 0 
z
M 2069 1613 
L 2069 3678 
L 634 1613 
L 2069 1613 
z
" transform="scale(0.015625)"/>
       </defs>
       <use xlink:href="#ArialMT-34"/>
      </g>
     </g>
    </g>
    <g id="ytick_4">
     <g id="line2d_8">
      <path d="M 53.235156 82.6029 
L 214.771719 82.6029 
" clip-path="url(#p9dfd954492)" style="fill: none; stroke: #ffffff; stroke-linecap: round"/>
     </g>
     <g id="text_4">
      <!-- 6 -->
      <g style="fill: #262626" transform="translate(37.618125 86.539697)scale(0.11 -0.11)">
       <defs>
        <path id="ArialMT-36" d="M 3184 3459 
L 2625 3416 
Q 2550 3747 2413 3897 
Q 2184 4138 1850 4138 
Q 1581 4138 1378 3988 
Q 1113 3794 959 3422 
Q 806 3050 800 2363 
Q 1003 2672 1297 2822 
Q 1591 2972 1913 2972 
Q 2475 2972 2870 2558 
Q 3266 2144 3266 1488 
Q 3266 1056 3080 686 
Q 2894 316 2569 119 
Q 2244 -78 1831 -78 
Q 1128 -78 684 439 
Q 241 956 241 2144 
Q 241 3472 731 4075 
Q 1159 4600 1884 4600 
Q 2425 4600 2770 4297 
Q 3116 3994 3184 3459 
z
M 888 1484 
Q 888 1194 1011 928 
Q 1134 663 1356 523 
Q 1578 384 1822 384 
Q 2178 384 2434 671 
Q 2691 959 2691 1453 
Q 2691 1928 2437 2201 
Q 2184 2475 1800 2475 
Q 1419 2475 1153 2201 
Q 888 1928 888 1484 
z
" transform="scale(0.015625)"/>
       </defs>
       <use xlink:href="#ArialMT-36"/>
      </g>
     </g>
    </g>
    <g id="ytick_5">
     <g id="line2d_9">
      <path d="M 53.235156 50.123806 
L 214.771719 50.123806 
" clip-path="url(#p9dfd954492)" style="fill: none; stroke: #ffffff; stroke-linecap: round"/>
     </g>
     <g id="text_5">
      <!-- 8 -->
      <g style="fill: #262626" transform="translate(37.618125 54.060603)scale(0.11 -0.11)">
       <defs>
        <path id="ArialMT-38" d="M 1131 2484 
Q 781 2613 612 2850 
Q 444 3088 444 3419 
Q 444 3919 803 4259 
Q 1163 4600 1759 4600 
Q 2359 4600 2725 4251 
Q 3091 3903 3091 3403 
Q 3091 3084 2923 2848 
Q 2756 2613 2416 2484 
Q 2838 2347 3058 2040 
Q 3278 1734 3278 1309 
Q 3278 722 2862 322 
Q 2447 -78 1769 -78 
Q 1091 -78 675 323 
Q 259 725 259 1325 
Q 259 1772 486 2073 
Q 713 2375 1131 2484 
z
M 1019 3438 
Q 1019 3113 1228 2906 
Q 1438 2700 1772 2700 
Q 2097 2700 2305 2904 
Q 2513 3109 2513 3406 
Q 2513 3716 2298 3927 
Q 2084 4138 1766 4138 
Q 1444 4138 1231 3931 
Q 1019 3725 1019 3438 
z
M 838 1322 
Q 838 1081 952 856 
Q 1066 631 1291 507 
Q 1516 384 1775 384 
Q 2178 384 2440 643 
Q 2703 903 2703 1303 
Q 2703 1709 2433 1975 
Q 2163 2241 1756 2241 
Q 1359 2241 1098 1978 
Q 838 1716 838 1322 
z
" transform="scale(0.015625)"/>
       </defs>
       <use xlink:href="#ArialMT-38"/>
      </g>
     </g>
    </g>
    <g id="text_6">
     <!-- Occurrences per 1000 theses -->
     <g style="fill: #262626" transform="translate(31.233125 183.385781)rotate(-90)scale(0.12 -0.12)">
      <defs>
       <path id="ArialMT-4f" d="M 309 2231 
Q 309 3372 921 4017 
Q 1534 4663 2503 4663 
Q 3138 4663 3647 4359 
Q 4156 4056 4423 3514 
Q 4691 2972 4691 2284 
Q 4691 1588 4409 1038 
Q 4128 488 3612 205 
Q 3097 -78 2500 -78 
Q 1853 -78 1343 234 
Q 834 547 571 1087 
Q 309 1628 309 2231 
z
M 934 2222 
Q 934 1394 1379 917 
Q 1825 441 2497 441 
Q 3181 441 3623 922 
Q 4066 1403 4066 2288 
Q 4066 2847 3877 3264 
Q 3688 3681 3323 3911 
Q 2959 4141 2506 4141 
Q 1863 4141 1398 3698 
Q 934 3256 934 2222 
z
" transform="scale(0.015625)"/>
       <path id="ArialMT-63" d="M 2588 1216 
L 3141 1144 
Q 3050 572 2676 248 
Q 2303 -75 1759 -75 
Q 1078 -75 664 370 
Q 250 816 250 1647 
Q 250 2184 428 2587 
Q 606 2991 970 3192 
Q 1334 3394 1763 3394 
Q 2303 3394 2647 3120 
Q 2991 2847 3088 2344 
L 2541 2259 
Q 2463 2594 2264 2762 
Q 2066 2931 1784 2931 
Q 1359 2931 1093 2626 
Q 828 2322 828 1663 
Q 828 994 1084 691 
Q 1341 388 1753 388 
Q 2084 388 2306 591 
Q 2528 794 2588 1216 
z
" transform="scale(0.015625)"/>
       <path id="ArialMT-75" d="M 2597 0 
L 2597 488 
Q 2209 -75 1544 -75 
Q 1250 -75 995 37 
Q 741 150 617 320 
Q 494 491 444 738 
Q 409 903 409 1263 
L 409 3319 
L 972 3319 
L 972 1478 
Q 972 1038 1006 884 
Q 1059 663 1231 536 
Q 1403 409 1656 409 
Q 1909 409 2131 539 
Q 2353 669 2445 892 
Q 2538 1116 2538 1541 
L 2538 3319 
L 3100 3319 
L 3100 0 
L 2597 0 
z
" transform="scale(0.015625)"/>
       <path id="ArialMT-72" d="M 416 0 
L 416 3319 
L 922 3319 
L 922 2816 
Q 1116 3169 1280 3281 
Q 1444 3394 1641 3394 
Q 1925 3394 2219 3213 
L 2025 2691 
Q 1819 2813 1613 2813 
Q 1428 2813 1281 2702 
Q 1134 2591 1072 2394 
Q 978 2094 978 1738 
L 978 0 
L 416 0 
z
" transform="scale(0.015625)"/>
       <path id="ArialMT-65" d="M 2694 1069 
L 3275 997 
Q 3138 488 2766 206 
Q 2394 -75 1816 -75 
Q 1088 -75 661 373 
Q 234 822 234 1631 
Q 234 2469 665 2931 
Q 1097 3394 1784 3394 
Q 2450 3394 2872 2941 
Q 3294 2488 3294 1666 
Q 3294 1616 3291 1516 
L 816 1516 
Q 847 969 1125 678 
Q 1403 388 1819 388 
Q 2128 388 2347 550 
Q 2566 713 2694 1069 
z
M 847 1978 
L 2700 1978 
Q 2663 2397 2488 2606 
Q 2219 2931 1791 2931 
Q 1403 2931 1139 2672 
Q 875 2413 847 1978 
z
" transform="scale(0.015625)"/>
       <path id="ArialMT-6e" d="M 422 0 
L 422 3319 
L 928 3319 
L 928 2847 
Q 1294 3394 1984 3394 
Q 2284 3394 2536 3286 
Q 2788 3178 2913 3003 
Q 3038 2828 3088 2588 
Q 3119 2431 3119 2041 
L 3119 0 
L 2556 0 
L 2556 2019 
Q 2556 2363 2490 2533 
Q 2425 2703 2258 2804 
Q 2091 2906 1866 2906 
Q 1506 2906 1245 2678 
Q 984 2450 984 1813 
L 984 0 
L 422 0 
z
" transform="scale(0.015625)"/>
       <path id="ArialMT-73" d="M 197 991 
L 753 1078 
Q 800 744 1014 566 
Q 1228 388 1613 388 
Q 2000 388 2187 545 
Q 2375 703 2375 916 
Q 2375 1106 2209 1216 
Q 2094 1291 1634 1406 
Q 1016 1563 777 1677 
Q 538 1791 414 1992 
Q 291 2194 291 2438 
Q 291 2659 392 2848 
Q 494 3038 669 3163 
Q 800 3259 1026 3326 
Q 1253 3394 1513 3394 
Q 1903 3394 2198 3281 
Q 2494 3169 2634 2976 
Q 2775 2784 2828 2463 
L 2278 2388 
Q 2241 2644 2061 2787 
Q 1881 2931 1553 2931 
Q 1166 2931 1000 2803 
Q 834 2675 834 2503 
Q 834 2394 903 2306 
Q 972 2216 1119 2156 
Q 1203 2125 1616 2013 
Q 2213 1853 2448 1751 
Q 2684 1650 2818 1456 
Q 2953 1263 2953 975 
Q 2953 694 2789 445 
Q 2625 197 2315 61 
Q 2006 -75 1616 -75 
Q 969 -75 630 194 
Q 291 463 197 991 
z
" transform="scale(0.015625)"/>
       <path id="ArialMT-20" transform="scale(0.015625)"/>
       <path id="ArialMT-70" d="M 422 -1272 
L 422 3319 
L 934 3319 
L 934 2888 
Q 1116 3141 1344 3267 
Q 1572 3394 1897 3394 
Q 2322 3394 2647 3175 
Q 2972 2956 3137 2557 
Q 3303 2159 3303 1684 
Q 3303 1175 3120 767 
Q 2938 359 2589 142 
Q 2241 -75 1856 -75 
Q 1575 -75 1351 44 
Q 1128 163 984 344 
L 984 -1272 
L 422 -1272 
z
M 931 1641 
Q 931 1000 1190 694 
Q 1450 388 1819 388 
Q 2194 388 2461 705 
Q 2728 1022 2728 1688 
Q 2728 2322 2467 2637 
Q 2206 2953 1844 2953 
Q 1484 2953 1207 2617 
Q 931 2281 931 1641 
z
" transform="scale(0.015625)"/>
       <path id="ArialMT-31" d="M 2384 0 
L 1822 0 
L 1822 3584 
Q 1619 3391 1289 3197 
Q 959 3003 697 2906 
L 697 3450 
Q 1169 3672 1522 3987 
Q 1875 4303 2022 4600 
L 2384 4600 
L 2384 0 
z
" transform="scale(0.015625)"/>
       <path id="ArialMT-74" d="M 1650 503 
L 1731 6 
Q 1494 -44 1306 -44 
Q 1000 -44 831 53 
Q 663 150 594 308 
Q 525 466 525 972 
L 525 2881 
L 113 2881 
L 113 3319 
L 525 3319 
L 525 4141 
L 1084 4478 
L 1084 3319 
L 1650 3319 
L 1650 2881 
L 1084 2881 
L 1084 941 
Q 1084 700 1114 631 
Q 1144 563 1211 522 
Q 1278 481 1403 481 
Q 1497 481 1650 503 
z
" transform="scale(0.015625)"/>
       <path id="ArialMT-68" d="M 422 0 
L 422 4581 
L 984 4581 
L 984 2938 
Q 1378 3394 1978 3394 
Q 2347 3394 2619 3248 
Q 2891 3103 3008 2847 
Q 3125 2591 3125 2103 
L 3125 0 
L 2563 0 
L 2563 2103 
Q 2563 2525 2380 2717 
Q 2197 2909 1863 2909 
Q 1613 2909 1392 2779 
Q 1172 2650 1078 2428 
Q 984 2206 984 1816 
L 984 0 
L 422 0 
z
" transform="scale(0.015625)"/>
      </defs>
      <use xlink:href="#ArialMT-4f"/>
      <use xlink:href="#ArialMT-63" x="77.783203"/>
      <use xlink:href="#ArialMT-63" x="127.783203"/>
      <use xlink:href="#ArialMT-75" x="177.783203"/>
      <use xlink:href="#ArialMT-72" x="233.398438"/>
      <use xlink:href="#ArialMT-72" x="266.699219"/>
      <use xlink:href="#ArialMT-65" x="300"/>
      <use xlink:href="#ArialMT-6e" x="355.615234"/>
      <use xlink:href="#ArialMT-63" x="411.230469"/>
      <use xlink:href="#ArialMT-65" x="461.230469"/>
      <use xlink:href="#ArialMT-73" x="516.845703"/>
      <use xlink:href="#ArialMT-20" x="566.845703"/>
      <use xlink:href="#ArialMT-70" x="594.628906"/>
      <use xlink:href="#ArialMT-65" x="650.244141"/>
      <use xlink:href="#ArialMT-72" x="705.859375"/>
      <use xlink:href="#ArialMT-20" x="739.160156"/>
      <use xlink:href="#ArialMT-31" x="766.943359"/>
      <use xlink:href="#ArialMT-30" x="822.558594"/>
      <use xlink:href="#ArialMT-30" x="878.173828"/>
      <use xlink:href="#ArialMT-30" x="933.789062"/>
      <use xlink:href="#ArialMT-20" x="989.404297"/>
      <use xlink:href="#ArialMT-74" x="1017.1875"/>
      <use xlink:href="#ArialMT-68" x="1044.970703"/>
      <use xlink:href="#ArialMT-65" x="1100.585938"/>
      <use xlink:href="#ArialMT-73" x="1156.201172"/>
      <use xlink:href="#ArialMT-65" x="1206.201172"/>
      <use xlink:href="#ArialMT-73" x="1261.816406"/>
     </g>
    </g>
   </g>
   <g id="line2d_10">
    <path d="M 60.577727 180.040185 
L 62.20941 180.040185 
L 63.841092 180.040185 
L 65.472775 180.040185 
L 67.104457 180.040185 
L 68.73614 180.040185 
L 70.367822 180.040185 
L 71.999504 180.040185 
L 73.631187 180.040185 
L 75.262869 180.040185 
L 76.894552 180.040185 
L 78.526234 180.040185 
L 80.157917 180.040185 
L 81.789599 180.040185 
L 83.421282 180.040185 
L 85.052964 180.040185 
L 86.684646 180.040185 
L 88.316329 180.040185 
L 89.948011 180.040185 
L 91.579694 180.040185 
L 93.211376 180.040185 
L 94.843059 180.040185 
L 96.474741 180.040185 
L 98.106424 180.040185 
L 99.738106 180.040185 
L 101.369789 180.040185 
L 103.001471 180.040185 
L 104.633153 180.040185 
L 106.264836 180.040185 
L 107.896518 180.040185 
L 109.528201 180.040185 
L 111.159883 180.040185 
L 112.791566 145.116427 
L 114.423248 180.040185 
L 116.054931 180.040185 
L 117.686613 152.562101 
L 119.318295 132.625448 
L 120.949978 115.597536 
L 122.58166 29.325128 
L 124.213343 89.619542 
L 125.845025 135.466862 
L 127.476708 84.833458 
L 129.10839 167.857478 
L 130.740073 158.139244 
L 132.371755 150.17435 
L 134.003437 117.951856 
L 135.63512 155.331858 
L 137.266802 157.469584 
L 138.898485 158.888055 
L 140.530167 163.057651 
L 142.16185 169.456078 
L 143.793532 154.385291 
L 145.425215 170.058902 
L 147.056897 161.92243 
L 148.68858 151.835645 
L 150.320262 162.550096 
L 151.951944 167.463575 
L 153.583627 177.12935 
L 155.215309 174.24862 
L 156.846992 177.22668 
L 158.478674 165.933559 
L 160.110357 174.64409 
L 161.742039 172.33885 
L 163.373722 172.84818 
L 165.005404 172.695297 
L 166.637086 172.868296 
L 168.268769 177.610206 
L 169.900451 175.200504 
L 171.532134 175.393676 
L 173.163816 173.640783 
L 174.795499 172.926936 
L 176.427181 180.040185 
L 178.058864 172.310012 
L 179.690546 177.134558 
L 181.322229 175.899204 
L 182.953911 173.399329 
L 184.585593 167.755077 
L 186.217276 172.212639 
L 187.848958 173.642632 
L 189.480641 172.851363 
L 191.112323 171.939505 
L 192.744006 180.040185 
L 194.375688 175.249404 
L 196.007371 177.818936 
L 197.639053 178.013029 
L 199.270735 176.336753 
L 200.902418 175.495111 
L 202.5341 179.14322 
L 204.165783 176.742312 
L 205.797465 176.673952 
L 207.429148 174.97456 
" clip-path="url(#p9dfd954492)" style="fill: none; stroke: #1f77b4; stroke-width: 1.5; stroke-linecap: round"/>
   </g>
   <g id="patch_3">
    <path d="M 53.235156 187.575938 
L 53.235156 21.789375 
" style="fill: none; stroke: #ffffff; stroke-width: 1.25; stroke-linejoin: miter; stroke-linecap: square"/>
   </g>
   <g id="patch_4">
    <path d="M 53.235156 187.575938 
L 214.771719 187.575938 
" style="fill: none; stroke: #ffffff; stroke-width: 1.25; stroke-linejoin: miter; stroke-linecap: square"/>
   </g>
   <g id="text_7">
    <!-- bubble -->
    <g style="fill: #262626" transform="translate(115.9875 15.789375)scale(0.12 -0.12)">
     <defs>
      <path id="ArialMT-62" d="M 941 0 
L 419 0 
L 419 4581 
L 981 4581 
L 981 2947 
Q 1338 3394 1891 3394 
Q 2197 3394 2470 3270 
Q 2744 3147 2920 2923 
Q 3097 2700 3197 2384 
Q 3297 2069 3297 1709 
Q 3297 856 2875 390 
Q 2453 -75 1863 -75 
Q 1275 -75 941 416 
L 941 0 
z
M 934 1684 
Q 934 1088 1097 822 
Q 1363 388 1816 388 
Q 2184 388 2453 708 
Q 2722 1028 2722 1663 
Q 2722 2313 2464 2622 
Q 2206 2931 1841 2931 
Q 1472 2931 1203 2611 
Q 934 2291 934 1684 
z
" transform="scale(0.015625)"/>
      <path id="ArialMT-6c" d="M 409 0 
L 409 4581 
L 972 4581 
L 972 0 
L 409 0 
z
" transform="scale(0.015625)"/>
     </defs>
     <use xlink:href="#ArialMT-62"/>
     <use xlink:href="#ArialMT-75" x="55.615234"/>
     <use xlink:href="#ArialMT-62" x="111.230469"/>
     <use xlink:href="#ArialMT-62" x="166.845703"/>
     <use xlink:href="#ArialMT-6c" x="222.460938"/>
     <use xlink:href="#ArialMT-65" x="244.677734"/>
    </g>
   </g>
  </g>
  <g id="axes_2">
   <g id="patch_5">
    <path d="M 252.731719 187.575938 
L 414.268281 187.575938 
L 414.268281 21.789375 
L 252.731719 21.789375 
z
" style="fill: #eaeaf2"/>
   </g>
   <g id="matplotlib.axis_3">
    <g id="xtick_5">
     <g id="line2d_11">
      <path d="M 260.07429 187.575938 
L 260.07429 21.789375 
" clip-path="url(#p601cfa2843)" style="fill: none; stroke: #ffffff; stroke-linecap: round"/>
     </g>
    </g>
    <g id="xtick_6">
     <g id="line2d_12">
      <path d="M 300.866351 187.575938 
L 300.866351 21.789375 
" clip-path="url(#p601cfa2843)" style="fill: none; stroke: #ffffff; stroke-linecap: round"/>
     </g>
    </g>
    <g id="xtick_7">
     <g id="line2d_13">
      <path d="M 341.658412 187.575938 
L 341.658412 21.789375 
" clip-path="url(#p601cfa2843)" style="fill: none; stroke: #ffffff; stroke-linecap: round"/>
     </g>
    </g>
    <g id="xtick_8">
     <g id="line2d_14">
      <path d="M 382.450473 187.575938 
L 382.450473 21.789375 
" clip-path="url(#p601cfa2843)" style="fill: none; stroke: #ffffff; stroke-linecap: round"/>
     </g>
    </g>
   </g>
   <g id="matplotlib.axis_4">
    <g id="ytick_6">
     <g id="line2d_15">
      <path d="M 252.731719 180.040185 
L 414.268281 180.040185 
" clip-path="url(#p601cfa2843)" style="fill: none; stroke: #ffffff; stroke-linecap: round"/>
     </g>
     <g id="text_8">
      <!-- 0.0 -->
      <g style="fill: #262626" transform="translate(227.941719 183.976982)scale(0.11 -0.11)">
       <defs>
        <path id="ArialMT-2e" d="M 581 0 
L 581 641 
L 1222 641 
L 1222 0 
L 581 0 
z
" transform="scale(0.015625)"/>
       </defs>
       <use xlink:href="#ArialMT-30"/>
       <use xlink:href="#ArialMT-2e" x="55.615234"/>
       <use xlink:href="#ArialMT-30" x="83.398438"/>
      </g>
     </g>
    </g>
    <g id="ytick_7">
     <g id="line2d_16">
      <path d="M 252.731719 146.325226 
L 414.268281 146.325226 
" clip-path="url(#p601cfa2843)" style="fill: none; stroke: #ffffff; stroke-linecap: round"/>
     </g>
     <g id="text_9">
      <!-- 0.5 -->
      <g style="fill: #262626" transform="translate(227.941719 150.262023)scale(0.11 -0.11)">
       <defs>
        <path id="ArialMT-35" d="M 266 1200 
L 856 1250 
Q 922 819 1161 601 
Q 1400 384 1738 384 
Q 2144 384 2425 690 
Q 2706 997 2706 1503 
Q 2706 1984 2436 2262 
Q 2166 2541 1728 2541 
Q 1456 2541 1237 2417 
Q 1019 2294 894 2097 
L 366 2166 
L 809 4519 
L 3088 4519 
L 3088 3981 
L 1259 3981 
L 1013 2750 
Q 1425 3038 1878 3038 
Q 2478 3038 2890 2622 
Q 3303 2206 3303 1553 
Q 3303 931 2941 478 
Q 2500 -78 1738 -78 
Q 1113 -78 717 272 
Q 322 622 266 1200 
z
" transform="scale(0.015625)"/>
       </defs>
       <use xlink:href="#ArialMT-30"/>
       <use xlink:href="#ArialMT-2e" x="55.615234"/>
       <use xlink:href="#ArialMT-35" x="83.398438"/>
      </g>
     </g>
    </g>
    <g id="ytick_8">
     <g id="line2d_17">
      <path d="M 252.731719 112.610268 
L 414.268281 112.610268 
" clip-path="url(#p601cfa2843)" style="fill: none; stroke: #ffffff; stroke-linecap: round"/>
     </g>
     <g id="text_10">
      <!-- 1.0 -->
      <g style="fill: #262626" transform="translate(227.941719 116.547065)scale(0.11 -0.11)">
       <use xlink:href="#ArialMT-31"/>
       <use xlink:href="#ArialMT-2e" x="55.615234"/>
       <use xlink:href="#ArialMT-30" x="83.398438"/>
      </g>
     </g>
    </g>
    <g id="ytick_9">
     <g id="line2d_18">
      <path d="M 252.731719 78.89531 
L 414.268281 78.89531 
" clip-path="url(#p601cfa2843)" style="fill: none; stroke: #ffffff; stroke-linecap: round"/>
     </g>
     <g id="text_11">
      <!-- 1.5 -->
      <g style="fill: #262626" transform="translate(227.941719 82.832107)scale(0.11 -0.11)">
       <use xlink:href="#ArialMT-31"/>
       <use xlink:href="#ArialMT-2e" x="55.615234"/>
       <use xlink:href="#ArialMT-35" x="83.398438"/>
      </g>
     </g>
    </g>
    <g id="ytick_10">
     <g id="line2d_19">
      <path d="M 252.731719 45.180352 
L 414.268281 45.180352 
" clip-path="url(#p601cfa2843)" style="fill: none; stroke: #ffffff; stroke-linecap: round"/>
     </g>
     <g id="text_12">
      <!-- 2.0 -->
      <g style="fill: #262626" transform="translate(227.941719 49.117149)scale(0.11 -0.11)">
       <use xlink:href="#ArialMT-32"/>
       <use xlink:href="#ArialMT-2e" x="55.615234"/>
       <use xlink:href="#ArialMT-30" x="83.398438"/>
      </g>
     </g>
    </g>
   </g>
   <g id="line2d_20">
    <path d="M 260.07429 180.040185 
L 261.705972 180.040185 
L 263.337655 180.040185 
L 264.969337 180.040185 
L 266.60102 180.040185 
L 268.232702 180.040185 
L 269.864384 180.040185 
L 271.496067 180.040185 
L 273.127749 180.040185 
L 274.759432 180.040185 
L 276.391114 180.040185 
L 278.022797 180.040185 
L 279.654479 180.040185 
L 281.286162 180.040185 
L 282.917844 180.040185 
L 284.549527 180.040185 
L 286.181209 180.040185 
L 287.812891 180.040185 
L 289.444574 180.040185 
L 291.076256 180.040185 
L 292.707939 180.040185 
L 294.339621 180.040185 
L 295.971304 180.040185 
L 297.602986 180.040185 
L 299.234669 180.040185 
L 300.866351 180.040185 
L 302.498033 180.040185 
L 304.129716 180.040185 
L 305.761398 180.040185 
L 307.393081 180.040185 
L 309.024763 180.040185 
L 310.656446 180.040185 
L 312.288128 180.040185 
L 313.919811 180.040185 
L 315.551493 180.040185 
L 317.183176 180.040185 
L 318.814858 180.040185 
L 320.44654 180.040185 
L 322.078223 180.040185 
L 323.709905 180.040185 
L 325.341588 118.347672 
L 326.97327 180.040185 
L 328.604953 180.040185 
L 330.236635 180.040185 
L 331.868318 180.040185 
L 333.5 180.040185 
L 335.131682 180.040185 
L 336.763365 180.040185 
L 338.395047 180.040185 
L 340.02673 162.411448 
L 341.658412 165.391061 
L 343.290095 180.040185 
L 344.921777 138.59586 
L 346.55346 167.502082 
L 348.185142 88.953844 
L 349.816824 119.521502 
L 351.448507 153.929859 
L 353.080189 155.867424 
L 354.711872 71.825269 
L 356.343554 121.628961 
L 357.975237 86.322441 
L 359.606919 124.025966 
L 361.238602 105.425987 
L 362.870284 80.49794 
L 364.501967 58.050286 
L 366.133649 60.923594 
L 367.765331 129.591347 
L 369.397014 29.325128 
L 371.028696 112.513802 
L 372.660379 153.468564 
L 374.292061 120.968861 
L 375.923744 124.485156 
L 377.555426 122.265123 
L 379.187109 161.943052 
L 380.818791 162.845986 
L 382.450473 157.980835 
L 384.082156 163.036759 
L 385.713838 158.372474 
L 387.345521 169.414607 
L 388.977203 175.065276 
L 390.608886 175.235088 
L 392.240568 170.234336 
L 393.872251 165.120961 
L 395.503933 180.040185 
L 397.135616 175.831602 
L 398.767298 176.195834 
L 400.39898 168.716941 
L 402.030663 180.040185 
L 403.662345 169.770105 
L 405.294028 173.051542 
L 406.92571 176.5346 
" clip-path="url(#p601cfa2843)" style="fill: none; stroke: #1f77b4; stroke-width: 1.5; stroke-linecap: round"/>
   </g>
   <g id="patch_6">
    <path d="M 252.731719 187.575938 
L 252.731719 21.789375 
" style="fill: none; stroke: #ffffff; stroke-width: 1.25; stroke-linejoin: miter; stroke-linecap: square"/>
   </g>
   <g id="patch_7">
    <path d="M 252.731719 187.575938 
L 414.268281 187.575938 
" style="fill: none; stroke: #ffffff; stroke-width: 1.25; stroke-linejoin: miter; stroke-linecap: square"/>
   </g>
   <g id="text_13">
    <!-- diagenesis -->
    <g style="fill: #262626" transform="translate(304.814375 15.789375)scale(0.12 -0.12)">
     <defs>
      <path id="ArialMT-64" d="M 2575 0 
L 2575 419 
Q 2259 -75 1647 -75 
Q 1250 -75 917 144 
Q 584 363 401 755 
Q 219 1147 219 1656 
Q 219 2153 384 2558 
Q 550 2963 881 3178 
Q 1213 3394 1622 3394 
Q 1922 3394 2156 3267 
Q 2391 3141 2538 2938 
L 2538 4581 
L 3097 4581 
L 3097 0 
L 2575 0 
z
M 797 1656 
Q 797 1019 1065 703 
Q 1334 388 1700 388 
Q 2069 388 2326 689 
Q 2584 991 2584 1609 
Q 2584 2291 2321 2609 
Q 2059 2928 1675 2928 
Q 1300 2928 1048 2622 
Q 797 2316 797 1656 
z
" transform="scale(0.015625)"/>
      <path id="ArialMT-69" d="M 425 3934 
L 425 4581 
L 988 4581 
L 988 3934 
L 425 3934 
z
M 425 0 
L 425 3319 
L 988 3319 
L 988 0 
L 425 0 
z
" transform="scale(0.015625)"/>
      <path id="ArialMT-61" d="M 2588 409 
Q 2275 144 1986 34 
Q 1697 -75 1366 -75 
Q 819 -75 525 192 
Q 231 459 231 875 
Q 231 1119 342 1320 
Q 453 1522 633 1644 
Q 813 1766 1038 1828 
Q 1203 1872 1538 1913 
Q 2219 1994 2541 2106 
Q 2544 2222 2544 2253 
Q 2544 2597 2384 2738 
Q 2169 2928 1744 2928 
Q 1347 2928 1158 2789 
Q 969 2650 878 2297 
L 328 2372 
Q 403 2725 575 2942 
Q 747 3159 1072 3276 
Q 1397 3394 1825 3394 
Q 2250 3394 2515 3294 
Q 2781 3194 2906 3042 
Q 3031 2891 3081 2659 
Q 3109 2516 3109 2141 
L 3109 1391 
Q 3109 606 3145 398 
Q 3181 191 3288 0 
L 2700 0 
Q 2613 175 2588 409 
z
M 2541 1666 
Q 2234 1541 1622 1453 
Q 1275 1403 1131 1340 
Q 988 1278 909 1158 
Q 831 1038 831 891 
Q 831 666 1001 516 
Q 1172 366 1500 366 
Q 1825 366 2078 508 
Q 2331 650 2450 897 
Q 2541 1088 2541 1459 
L 2541 1666 
z
" transform="scale(0.015625)"/>
      <path id="ArialMT-67" d="M 319 -275 
L 866 -356 
Q 900 -609 1056 -725 
Q 1266 -881 1628 -881 
Q 2019 -881 2231 -725 
Q 2444 -569 2519 -288 
Q 2563 -116 2559 434 
Q 2191 0 1641 0 
Q 956 0 581 494 
Q 206 988 206 1678 
Q 206 2153 378 2554 
Q 550 2956 876 3175 
Q 1203 3394 1644 3394 
Q 2231 3394 2613 2919 
L 2613 3319 
L 3131 3319 
L 3131 450 
Q 3131 -325 2973 -648 
Q 2816 -972 2473 -1159 
Q 2131 -1347 1631 -1347 
Q 1038 -1347 672 -1080 
Q 306 -813 319 -275 
z
M 784 1719 
Q 784 1066 1043 766 
Q 1303 466 1694 466 
Q 2081 466 2343 764 
Q 2606 1063 2606 1700 
Q 2606 2309 2336 2618 
Q 2066 2928 1684 2928 
Q 1309 2928 1046 2623 
Q 784 2319 784 1719 
z
" transform="scale(0.015625)"/>
     </defs>
     <use xlink:href="#ArialMT-64"/>
     <use xlink:href="#ArialMT-69" x="55.615234"/>
     <use xlink:href="#ArialMT-61" x="77.832031"/>
     <use xlink:href="#ArialMT-67" x="133.447266"/>
     <use xlink:href="#ArialMT-65" x="189.0625"/>
     <use xlink:href="#ArialMT-6e" x="244.677734"/>
     <use xlink:href="#ArialMT-65" x="300.292969"/>
     <use xlink:href="#ArialMT-73" x="355.908203"/>
     <use xlink:href="#ArialMT-69" x="405.908203"/>
     <use xlink:href="#ArialMT-73" x="428.125"/>
    </g>
   </g>
  </g>
  <g id="axes_3">
   <g id="patch_8">
    <path d="M 53.235156 380.369375 
L 214.771719 380.369375 
L 214.771719 214.582812 
L 53.235156 214.582812 
z
" style="fill: #eaeaf2"/>
   </g>
   <g id="matplotlib.axis_5">
    <g id="xtick_9">
     <g id="line2d_21">
      <path d="M 60.577727 380.369375 
L 60.577727 214.582812 
" clip-path="url(#p1a49d6d922)" style="fill: none; stroke: #ffffff; stroke-linecap: round"/>
     </g>
     <g id="text_14">
      <!-- 1925 -->
      <g style="fill: #262626" transform="translate(48.343665 397.742969)scale(0.11 -0.11)">
       <defs>
        <path id="ArialMT-39" d="M 350 1059 
L 891 1109 
Q 959 728 1153 556 
Q 1347 384 1650 384 
Q 1909 384 2104 503 
Q 2300 622 2425 820 
Q 2550 1019 2634 1356 
Q 2719 1694 2719 2044 
Q 2719 2081 2716 2156 
Q 2547 1888 2255 1720 
Q 1963 1553 1622 1553 
Q 1053 1553 659 1965 
Q 266 2378 266 3053 
Q 266 3750 677 4175 
Q 1088 4600 1706 4600 
Q 2153 4600 2523 4359 
Q 2894 4119 3086 3673 
Q 3278 3228 3278 2384 
Q 3278 1506 3087 986 
Q 2897 466 2520 194 
Q 2144 -78 1638 -78 
Q 1100 -78 759 220 
Q 419 519 350 1059 
z
M 2653 3081 
Q 2653 3566 2395 3850 
Q 2138 4134 1775 4134 
Q 1400 4134 1122 3828 
Q 844 3522 844 3034 
Q 844 2597 1108 2323 
Q 1372 2050 1759 2050 
Q 2150 2050 2401 2323 
Q 2653 2597 2653 3081 
z
" transform="scale(0.015625)"/>
       </defs>
       <use xlink:href="#ArialMT-31"/>
       <use xlink:href="#ArialMT-39" x="55.615234"/>
       <use xlink:href="#ArialMT-32" x="111.230469"/>
       <use xlink:href="#ArialMT-35" x="166.845703"/>
      </g>
     </g>
    </g>
    <g id="xtick_10">
     <g id="line2d_22">
      <path d="M 101.369789 380.369375 
L 101.369789 214.582812 
" clip-path="url(#p1a49d6d922)" style="fill: none; stroke: #ffffff; stroke-linecap: round"/>
     </g>
     <g id="text_15">
      <!-- 1950 -->
      <g style="fill: #262626" transform="translate(89.135726 397.742969)scale(0.11 -0.11)">
       <use xlink:href="#ArialMT-31"/>
       <use xlink:href="#ArialMT-39" x="55.615234"/>
       <use xlink:href="#ArialMT-35" x="111.230469"/>
       <use xlink:href="#ArialMT-30" x="166.845703"/>
      </g>
     </g>
    </g>
    <g id="xtick_11">
     <g id="line2d_23">
      <path d="M 142.16185 380.369375 
L 142.16185 214.582812 
" clip-path="url(#p1a49d6d922)" style="fill: none; stroke: #ffffff; stroke-linecap: round"/>
     </g>
     <g id="text_16">
      <!-- 1975 -->
      <g style="fill: #262626" transform="translate(129.927787 397.742969)scale(0.11 -0.11)">
       <defs>
        <path id="ArialMT-37" d="M 303 3981 
L 303 4522 
L 3269 4522 
L 3269 4084 
Q 2831 3619 2401 2847 
Q 1972 2075 1738 1259 
Q 1569 684 1522 0 
L 944 0 
Q 953 541 1156 1306 
Q 1359 2072 1739 2783 
Q 2119 3494 2547 3981 
L 303 3981 
z
" transform="scale(0.015625)"/>
       </defs>
       <use xlink:href="#ArialMT-31"/>
       <use xlink:href="#ArialMT-39" x="55.615234"/>
       <use xlink:href="#ArialMT-37" x="111.230469"/>
       <use xlink:href="#ArialMT-35" x="166.845703"/>
      </g>
     </g>
    </g>
    <g id="xtick_12">
     <g id="line2d_24">
      <path d="M 182.953911 380.369375 
L 182.953911 214.582812 
" clip-path="url(#p1a49d6d922)" style="fill: none; stroke: #ffffff; stroke-linecap: round"/>
     </g>
     <g id="text_17">
      <!-- 2000 -->
      <g style="fill: #262626" transform="translate(170.719848 397.742969)scale(0.11 -0.11)">
       <use xlink:href="#ArialMT-32"/>
       <use xlink:href="#ArialMT-30" x="55.615234"/>
       <use xlink:href="#ArialMT-30" x="111.230469"/>
       <use xlink:href="#ArialMT-30" x="166.845703"/>
      </g>
     </g>
    </g>
    <g id="text_18">
     <!-- Year -->
     <g style="fill: #262626" transform="translate(121.877813 412.518594)scale(0.12 -0.12)">
      <defs>
       <path id="ArialMT-59" d="M 1784 0 
L 1784 1941 
L 19 4581 
L 756 4581 
L 1659 3200 
Q 1909 2813 2125 2425 
Q 2331 2784 2625 3234 
L 3513 4581 
L 4219 4581 
L 2391 1941 
L 2391 0 
L 1784 0 
z
" transform="scale(0.015625)"/>
      </defs>
      <use xlink:href="#ArialMT-59"/>
      <use xlink:href="#ArialMT-65" x="57.574219"/>
      <use xlink:href="#ArialMT-61" x="113.189453"/>
      <use xlink:href="#ArialMT-72" x="168.804688"/>
     </g>
    </g>
   </g>
   <g id="matplotlib.axis_6">
    <g id="ytick_11">
     <g id="line2d_25">
      <path d="M 53.235156 372.833622 
L 214.771719 372.833622 
" clip-path="url(#p1a49d6d922)" style="fill: none; stroke: #ffffff; stroke-linecap: round"/>
     </g>
     <g id="text_19">
      <!-- 0.00 -->
      <g style="fill: #262626" transform="translate(22.328125 376.770419)scale(0.11 -0.11)">
       <use xlink:href="#ArialMT-30"/>
       <use xlink:href="#ArialMT-2e" x="55.615234"/>
       <use xlink:href="#ArialMT-30" x="83.398438"/>
       <use xlink:href="#ArialMT-30" x="139.013672"/>
      </g>
     </g>
    </g>
    <g id="ytick_12">
     <g id="line2d_26">
      <path d="M 53.235156 347.655237 
L 214.771719 347.655237 
" clip-path="url(#p1a49d6d922)" style="fill: none; stroke: #ffffff; stroke-linecap: round"/>
     </g>
     <g id="text_20">
      <!-- 0.25 -->
      <g style="fill: #262626" transform="translate(22.328125 351.592033)scale(0.11 -0.11)">
       <use xlink:href="#ArialMT-30"/>
       <use xlink:href="#ArialMT-2e" x="55.615234"/>
       <use xlink:href="#ArialMT-32" x="83.398438"/>
       <use xlink:href="#ArialMT-35" x="139.013672"/>
      </g>
     </g>
    </g>
    <g id="ytick_13">
     <g id="line2d_27">
      <path d="M 53.235156 322.476851 
L 214.771719 322.476851 
" clip-path="url(#p1a49d6d922)" style="fill: none; stroke: #ffffff; stroke-linecap: round"/>
     </g>
     <g id="text_21">
      <!-- 0.50 -->
      <g style="fill: #262626" transform="translate(22.328125 326.413648)scale(0.11 -0.11)">
       <use xlink:href="#ArialMT-30"/>
       <use xlink:href="#ArialMT-2e" x="55.615234"/>
       <use xlink:href="#ArialMT-35" x="83.398438"/>
       <use xlink:href="#ArialMT-30" x="139.013672"/>
      </g>
     </g>
    </g>
    <g id="ytick_14">
     <g id="line2d_28">
      <path d="M 53.235156 297.298465 
L 214.771719 297.298465 
" clip-path="url(#p1a49d6d922)" style="fill: none; stroke: #ffffff; stroke-linecap: round"/>
     </g>
     <g id="text_22">
      <!-- 0.75 -->
      <g style="fill: #262626" transform="translate(22.328125 301.235262)scale(0.11 -0.11)">
       <use xlink:href="#ArialMT-30"/>
       <use xlink:href="#ArialMT-2e" x="55.615234"/>
       <use xlink:href="#ArialMT-37" x="83.398438"/>
       <use xlink:href="#ArialMT-35" x="139.013672"/>
      </g>
     </g>
    </g>
    <g id="ytick_15">
     <g id="line2d_29">
      <path d="M 53.235156 272.12008 
L 214.771719 272.12008 
" clip-path="url(#p1a49d6d922)" style="fill: none; stroke: #ffffff; stroke-linecap: round"/>
     </g>
     <g id="text_23">
      <!-- 1.00 -->
      <g style="fill: #262626" transform="translate(22.328125 276.056877)scale(0.11 -0.11)">
       <use xlink:href="#ArialMT-31"/>
       <use xlink:href="#ArialMT-2e" x="55.615234"/>
       <use xlink:href="#ArialMT-30" x="83.398438"/>
       <use xlink:href="#ArialMT-30" x="139.013672"/>
      </g>
     </g>
    </g>
    <g id="ytick_16">
     <g id="line2d_30">
      <path d="M 53.235156 246.941694 
L 214.771719 246.941694 
" clip-path="url(#p1a49d6d922)" style="fill: none; stroke: #ffffff; stroke-linecap: round"/>
     </g>
     <g id="text_24">
      <!-- 1.25 -->
      <g style="fill: #262626" transform="translate(22.328125 250.878491)scale(0.11 -0.11)">
       <use xlink:href="#ArialMT-31"/>
       <use xlink:href="#ArialMT-2e" x="55.615234"/>
       <use xlink:href="#ArialMT-32" x="83.398438"/>
       <use xlink:href="#ArialMT-35" x="139.013672"/>
      </g>
     </g>
    </g>
    <g id="ytick_17">
     <g id="line2d_31">
      <path d="M 53.235156 221.763308 
L 214.771719 221.763308 
" clip-path="url(#p1a49d6d922)" style="fill: none; stroke: #ffffff; stroke-linecap: round"/>
     </g>
     <g id="text_25">
      <!-- 1.50 -->
      <g style="fill: #262626" transform="translate(22.328125 225.700105)scale(0.11 -0.11)">
       <use xlink:href="#ArialMT-31"/>
       <use xlink:href="#ArialMT-2e" x="55.615234"/>
       <use xlink:href="#ArialMT-35" x="83.398438"/>
       <use xlink:href="#ArialMT-30" x="139.013672"/>
      </g>
     </g>
    </g>
    <g id="text_26">
     <!-- Occurrences per 1000 theses -->
     <g style="fill: #262626" transform="translate(15.943125 376.179219)rotate(-90)scale(0.12 -0.12)">
      <use xlink:href="#ArialMT-4f"/>
      <use xlink:href="#ArialMT-63" x="77.783203"/>
      <use xlink:href="#ArialMT-63" x="127.783203"/>
      <use xlink:href="#ArialMT-75" x="177.783203"/>
      <use xlink:href="#ArialMT-72" x="233.398438"/>
      <use xlink:href="#ArialMT-72" x="266.699219"/>
      <use xlink:href="#ArialMT-65" x="300"/>
      <use xlink:href="#ArialMT-6e" x="355.615234"/>
      <use xlink:href="#ArialMT-63" x="411.230469"/>
      <use xlink:href="#ArialMT-65" x="461.230469"/>
      <use xlink:href="#ArialMT-73" x="516.845703"/>
      <use xlink:href="#ArialMT-20" x="566.845703"/>
      <use xlink:href="#ArialMT-70" x="594.628906"/>
      <use xlink:href="#ArialMT-65" x="650.244141"/>
      <use xlink:href="#ArialMT-72" x="705.859375"/>
      <use xlink:href="#ArialMT-20" x="739.160156"/>
      <use xlink:href="#ArialMT-31" x="766.943359"/>
      <use xlink:href="#ArialMT-30" x="822.558594"/>
      <use xlink:href="#ArialMT-30" x="878.173828"/>
      <use xlink:href="#ArialMT-30" x="933.789062"/>
      <use xlink:href="#ArialMT-20" x="989.404297"/>
      <use xlink:href="#ArialMT-74" x="1017.1875"/>
      <use xlink:href="#ArialMT-68" x="1044.970703"/>
      <use xlink:href="#ArialMT-65" x="1100.585938"/>
      <use xlink:href="#ArialMT-73" x="1156.201172"/>
      <use xlink:href="#ArialMT-65" x="1206.201172"/>
      <use xlink:href="#ArialMT-73" x="1261.816406"/>
     </g>
    </g>
   </g>
   <g id="line2d_32">
    <path d="M 60.577727 372.833622 
L 62.20941 372.833622 
L 63.841092 372.833622 
L 65.472775 372.833622 
L 67.104457 372.833622 
L 68.73614 372.833622 
L 70.367822 372.833622 
L 71.999504 372.833622 
L 73.631187 372.833622 
L 75.262869 372.833622 
L 76.894552 372.833622 
L 78.526234 372.833622 
L 80.157917 372.833622 
L 81.789599 372.833622 
L 83.421282 372.833622 
L 85.052964 372.833622 
L 86.684646 372.833622 
L 88.316329 372.833622 
L 89.948011 372.833622 
L 91.579694 372.833622 
L 93.211376 372.833622 
L 94.843059 372.833622 
L 96.474741 372.833622 
L 98.106424 372.833622 
L 99.738106 372.833622 
L 101.369789 372.833622 
L 103.001471 372.833622 
L 104.633153 372.833622 
L 106.264836 372.833622 
L 107.896518 372.833622 
L 109.528201 372.833622 
L 111.159883 372.833622 
L 112.791566 372.833622 
L 114.423248 372.833622 
L 116.054931 372.833622 
L 117.686613 372.833622 
L 119.318295 372.833622 
L 120.949978 372.833622 
L 122.58166 372.833622 
L 124.213343 372.833622 
L 125.845025 372.833622 
L 127.476708 372.833622 
L 129.10839 372.833622 
L 130.740073 372.833622 
L 132.371755 372.833622 
L 134.003437 372.833622 
L 135.63512 372.833622 
L 137.266802 372.833622 
L 138.898485 372.833622 
L 140.530167 372.833622 
L 142.16185 372.833622 
L 143.793532 372.833622 
L 145.425215 372.833622 
L 147.056897 372.833622 
L 148.68858 372.833622 
L 150.320262 372.833622 
L 151.951944 372.833622 
L 153.583627 372.833622 
L 155.215309 372.833622 
L 156.846992 372.833622 
L 158.478674 372.833622 
L 160.110357 372.833622 
L 161.742039 372.833622 
L 163.373722 372.833622 
L 165.005404 357.649913 
L 166.637086 372.833622 
L 168.268769 372.833622 
L 169.900451 372.833622 
L 171.532134 372.833622 
L 173.163816 372.833622 
L 174.795499 339.747701 
L 176.427181 372.833622 
L 178.058864 353.657395 
L 179.690546 309.763771 
L 181.322229 338.591874 
L 182.953911 298.700811 
L 184.585593 245.851766 
L 186.217276 316.198436 
L 187.848958 253.805641 
L 189.480641 283.667139 
L 191.112323 222.118565 
L 192.744006 284.95734 
L 194.375688 298.55562 
L 196.007371 269.516488 
L 197.639053 259.686464 
L 199.270735 292.44653 
L 200.902418 288.271454 
L 202.5341 339.457137 
L 204.165783 321.70221 
L 205.797465 294.546679 
L 207.429148 330.946004 
" clip-path="url(#p1a49d6d922)" style="fill: none; stroke: #1f77b4; stroke-width: 1.5; stroke-linecap: round"/>
   </g>
   <g id="patch_9">
    <path d="M 53.235156 380.369375 
L 53.235156 214.582812 
" style="fill: none; stroke: #ffffff; stroke-width: 1.25; stroke-linejoin: miter; stroke-linecap: square"/>
   </g>
   <g id="patch_10">
    <path d="M 53.235156 380.369375 
L 214.771719 380.369375 
" style="fill: none; stroke: #ffffff; stroke-width: 1.25; stroke-linejoin: miter; stroke-linecap: square"/>
   </g>
   <g id="text_27">
    <!-- globalisation -->
    <g style="fill: #262626" transform="translate(100.648125 208.582812)scale(0.12 -0.12)">
     <defs>
      <path id="ArialMT-6f" d="M 213 1659 
Q 213 2581 725 3025 
Q 1153 3394 1769 3394 
Q 2453 3394 2887 2945 
Q 3322 2497 3322 1706 
Q 3322 1066 3130 698 
Q 2938 331 2570 128 
Q 2203 -75 1769 -75 
Q 1072 -75 642 372 
Q 213 819 213 1659 
z
M 791 1659 
Q 791 1022 1069 705 
Q 1347 388 1769 388 
Q 2188 388 2466 706 
Q 2744 1025 2744 1678 
Q 2744 2294 2464 2611 
Q 2184 2928 1769 2928 
Q 1347 2928 1069 2612 
Q 791 2297 791 1659 
z
" transform="scale(0.015625)"/>
     </defs>
     <use xlink:href="#ArialMT-67"/>
     <use xlink:href="#ArialMT-6c" x="55.615234"/>
     <use xlink:href="#ArialMT-6f" x="77.832031"/>
     <use xlink:href="#ArialMT-62" x="133.447266"/>
     <use xlink:href="#ArialMT-61" x="189.0625"/>
     <use xlink:href="#ArialMT-6c" x="244.677734"/>
     <use xlink:href="#ArialMT-69" x="266.894531"/>
     <use xlink:href="#ArialMT-73" x="289.111328"/>
     <use xlink:href="#ArialMT-61" x="339.111328"/>
     <use xlink:href="#ArialMT-74" x="394.726562"/>
     <use xlink:href="#ArialMT-69" x="422.509766"/>
     <use xlink:href="#ArialMT-6f" x="444.726562"/>
     <use xlink:href="#ArialMT-6e" x="500.341797"/>
    </g>
   </g>
  </g>
  <g id="axes_4">
   <g id="patch_11">
    <path d="M 252.731719 380.369375 
L 414.268281 380.369375 
L 414.268281 214.582812 
L 252.731719 214.582812 
z
" style="fill: #eaeaf2"/>
   </g>
   <g id="matplotlib.axis_7">
    <g id="xtick_13">
     <g id="line2d_33">
      <path d="M 260.07429 380.369375 
L 260.07429 214.582812 
" clip-path="url(#p68a1e83950)" style="fill: none; stroke: #ffffff; stroke-linecap: round"/>
     </g>
     <g id="text_28">
      <!-- 1925 -->
      <g style="fill: #262626" transform="translate(247.840227 397.742969)scale(0.11 -0.11)">
       <use xlink:href="#ArialMT-31"/>
       <use xlink:href="#ArialMT-39" x="55.615234"/>
       <use xlink:href="#ArialMT-32" x="111.230469"/>
       <use xlink:href="#ArialMT-35" x="166.845703"/>
      </g>
     </g>
    </g>
    <g id="xtick_14">
     <g id="line2d_34">
      <path d="M 300.866351 380.369375 
L 300.866351 214.582812 
" clip-path="url(#p68a1e83950)" style="fill: none; stroke: #ffffff; stroke-linecap: round"/>
     </g>
     <g id="text_29">
      <!-- 1950 -->
      <g style="fill: #262626" transform="translate(288.632289 397.742969)scale(0.11 -0.11)">
       <use xlink:href="#ArialMT-31"/>
       <use xlink:href="#ArialMT-39" x="55.615234"/>
       <use xlink:href="#ArialMT-35" x="111.230469"/>
       <use xlink:href="#ArialMT-30" x="166.845703"/>
      </g>
     </g>
    </g>
    <g id="xtick_15">
     <g id="line2d_35">
      <path d="M 341.658412 380.369375 
L 341.658412 214.582812 
" clip-path="url(#p68a1e83950)" style="fill: none; stroke: #ffffff; stroke-linecap: round"/>
     </g>
     <g id="text_30">
      <!-- 1975 -->
      <g style="fill: #262626" transform="translate(329.42435 397.742969)scale(0.11 -0.11)">
       <use xlink:href="#ArialMT-31"/>
       <use xlink:href="#ArialMT-39" x="55.615234"/>
       <use xlink:href="#ArialMT-37" x="111.230469"/>
       <use xlink:href="#ArialMT-35" x="166.845703"/>
      </g>
     </g>
    </g>
    <g id="xtick_16">
     <g id="line2d_36">
      <path d="M 382.450473 380.369375 
L 382.450473 214.582812 
" clip-path="url(#p68a1e83950)" style="fill: none; stroke: #ffffff; stroke-linecap: round"/>
     </g>
     <g id="text_31">
      <!-- 2000 -->
      <g style="fill: #262626" transform="translate(370.216411 397.742969)scale(0.11 -0.11)">
       <use xlink:href="#ArialMT-32"/>
       <use xlink:href="#ArialMT-30" x="55.615234"/>
       <use xlink:href="#ArialMT-30" x="111.230469"/>
       <use xlink:href="#ArialMT-30" x="166.845703"/>
      </g>
     </g>
    </g>
    <g id="text_32">
     <!-- Year -->
     <g style="fill: #262626" transform="translate(321.374375 412.518594)scale(0.12 -0.12)">
      <use xlink:href="#ArialMT-59"/>
      <use xlink:href="#ArialMT-65" x="57.574219"/>
      <use xlink:href="#ArialMT-61" x="113.189453"/>
      <use xlink:href="#ArialMT-72" x="168.804688"/>
     </g>
    </g>
   </g>
   <g id="matplotlib.axis_8">
    <g id="ytick_18">
     <g id="line2d_37">
      <path d="M 252.731719 372.833622 
L 414.268281 372.833622 
" clip-path="url(#p68a1e83950)" style="fill: none; stroke: #ffffff; stroke-linecap: round"/>
     </g>
     <g id="text_33">
      <!-- 0.0 -->
      <g style="fill: #262626" transform="translate(227.941719 376.770419)scale(0.11 -0.11)">
       <use xlink:href="#ArialMT-30"/>
       <use xlink:href="#ArialMT-2e" x="55.615234"/>
       <use xlink:href="#ArialMT-30" x="83.398438"/>
      </g>
     </g>
    </g>
    <g id="ytick_19">
     <g id="line2d_38">
      <path d="M 252.731719 342.514777 
L 414.268281 342.514777 
" clip-path="url(#p68a1e83950)" style="fill: none; stroke: #ffffff; stroke-linecap: round"/>
     </g>
     <g id="text_34">
      <!-- 0.2 -->
      <g style="fill: #262626" transform="translate(227.941719 346.451573)scale(0.11 -0.11)">
       <use xlink:href="#ArialMT-30"/>
       <use xlink:href="#ArialMT-2e" x="55.615234"/>
       <use xlink:href="#ArialMT-32" x="83.398438"/>
      </g>
     </g>
    </g>
    <g id="ytick_20">
     <g id="line2d_39">
      <path d="M 252.731719 312.195931 
L 414.268281 312.195931 
" clip-path="url(#p68a1e83950)" style="fill: none; stroke: #ffffff; stroke-linecap: round"/>
     </g>
     <g id="text_35">
      <!-- 0.4 -->
      <g style="fill: #262626" transform="translate(227.941719 316.132728)scale(0.11 -0.11)">
       <use xlink:href="#ArialMT-30"/>
       <use xlink:href="#ArialMT-2e" x="55.615234"/>
       <use xlink:href="#ArialMT-34" x="83.398438"/>
      </g>
     </g>
    </g>
    <g id="ytick_21">
     <g id="line2d_40">
      <path d="M 252.731719 281.877085 
L 414.268281 281.877085 
" clip-path="url(#p68a1e83950)" style="fill: none; stroke: #ffffff; stroke-linecap: round"/>
     </g>
     <g id="text_36">
      <!-- 0.6 -->
      <g style="fill: #262626" transform="translate(227.941719 285.813882)scale(0.11 -0.11)">
       <use xlink:href="#ArialMT-30"/>
       <use xlink:href="#ArialMT-2e" x="55.615234"/>
       <use xlink:href="#ArialMT-36" x="83.398438"/>
      </g>
     </g>
    </g>
    <g id="ytick_22">
     <g id="line2d_41">
      <path d="M 252.731719 251.55824 
L 414.268281 251.55824 
" clip-path="url(#p68a1e83950)" style="fill: none; stroke: #ffffff; stroke-linecap: round"/>
     </g>
     <g id="text_37">
      <!-- 0.8 -->
      <g style="fill: #262626" transform="translate(227.941719 255.495037)scale(0.11 -0.11)">
       <use xlink:href="#ArialMT-30"/>
       <use xlink:href="#ArialMT-2e" x="55.615234"/>
       <use xlink:href="#ArialMT-38" x="83.398438"/>
      </g>
     </g>
    </g>
    <g id="ytick_23">
     <g id="line2d_42">
      <path d="M 252.731719 221.239394 
L 414.268281 221.239394 
" clip-path="url(#p68a1e83950)" style="fill: none; stroke: #ffffff; stroke-linecap: round"/>
     </g>
     <g id="text_38">
      <!-- 1.0 -->
      <g style="fill: #262626" transform="translate(227.941719 225.176191)scale(0.11 -0.11)">
       <use xlink:href="#ArialMT-31"/>
       <use xlink:href="#ArialMT-2e" x="55.615234"/>
       <use xlink:href="#ArialMT-30" x="83.398438"/>
      </g>
     </g>
    </g>
   </g>
   <g id="line2d_43">
    <path d="M 260.07429 372.833622 
L 261.705972 372.833622 
L 263.337655 372.833622 
L 264.969337 372.833622 
L 266.60102 372.833622 
L 268.232702 372.833622 
L 269.864384 372.833622 
L 271.496067 372.833622 
L 273.127749 372.833622 
L 274.759432 372.833622 
L 276.391114 372.833622 
L 278.022797 372.833622 
L 279.654479 372.833622 
L 281.286162 372.833622 
L 282.917844 372.833622 
L 284.549527 372.833622 
L 286.181209 372.833622 
L 287.812891 372.833622 
L 289.444574 372.833622 
L 291.076256 372.833622 
L 292.707939 372.833622 
L 294.339621 372.833622 
L 295.971304 372.833622 
L 297.602986 372.833622 
L 299.234669 372.833622 
L 300.866351 372.833622 
L 302.498033 372.833622 
L 304.129716 372.833622 
L 305.761398 372.833622 
L 307.393081 372.833622 
L 309.024763 372.833622 
L 310.656446 372.833622 
L 312.288128 372.833622 
L 313.919811 372.833622 
L 315.551493 372.833622 
L 317.183176 372.833622 
L 318.814858 372.833622 
L 320.44654 372.833622 
L 322.078223 372.833622 
L 323.709905 372.833622 
L 325.341588 372.833622 
L 326.97327 372.833622 
L 328.604953 372.833622 
L 330.236635 372.833622 
L 331.868318 372.833622 
L 333.5 372.833622 
L 335.131682 372.833622 
L 336.763365 372.833622 
L 338.395047 372.833622 
L 340.02673 372.833622 
L 341.658412 372.833622 
L 343.290095 372.833622 
L 344.921777 372.833622 
L 346.55346 372.833622 
L 348.185142 372.833622 
L 349.816824 372.833622 
L 351.448507 372.833622 
L 353.080189 372.833622 
L 354.711872 372.833622 
L 356.343554 372.833622 
L 357.975237 372.833622 
L 359.606919 372.833622 
L 361.238602 372.833622 
L 362.870284 372.833622 
L 364.501967 372.833622 
L 366.133649 372.833622 
L 367.765331 372.833622 
L 369.397014 372.833622 
L 371.028696 372.833622 
L 372.660379 372.833622 
L 374.292061 372.833622 
L 375.923744 357.221446 
L 377.555426 372.833622 
L 379.187109 372.833622 
L 380.818791 372.833622 
L 382.450473 372.833622 
L 384.082156 360.091399 
L 385.713838 348.477223 
L 387.345521 372.833622 
L 388.977203 339.28023 
L 390.608886 362.030927 
L 392.240568 361.810992 
L 393.872251 305.751583 
L 395.503933 331.363446 
L 397.135616 325.525475 
L 398.767298 320.976988 
L 400.39898 287.978191 
L 402.030663 222.118565 
L 403.662345 249.692654 
L 405.294028 223.57258 
L 406.92571 223.091468 
" clip-path="url(#p68a1e83950)" style="fill: none; stroke: #1f77b4; stroke-width: 1.5; stroke-linecap: round"/>
   </g>
   <g id="patch_12">
    <path d="M 252.731719 380.369375 
L 252.731719 214.582812 
" style="fill: none; stroke: #ffffff; stroke-width: 1.25; stroke-linejoin: miter; stroke-linecap: square"/>
   </g>
   <g id="patch_13">
    <path d="M 252.731719 380.369375 
L 414.268281 380.369375 
" style="fill: none; stroke: #ffffff; stroke-width: 1.25; stroke-linejoin: miter; stroke-linecap: square"/>
   </g>
   <g id="text_39">
    <!-- mindfulness -->
    <g style="fill: #262626" transform="translate(301.48625 208.582812)scale(0.12 -0.12)">
     <defs>
      <path id="ArialMT-6d" d="M 422 0 
L 422 3319 
L 925 3319 
L 925 2853 
Q 1081 3097 1340 3245 
Q 1600 3394 1931 3394 
Q 2300 3394 2536 3241 
Q 2772 3088 2869 2813 
Q 3263 3394 3894 3394 
Q 4388 3394 4653 3120 
Q 4919 2847 4919 2278 
L 4919 0 
L 4359 0 
L 4359 2091 
Q 4359 2428 4304 2576 
Q 4250 2725 4106 2815 
Q 3963 2906 3769 2906 
Q 3419 2906 3187 2673 
Q 2956 2441 2956 1928 
L 2956 0 
L 2394 0 
L 2394 2156 
Q 2394 2531 2256 2718 
Q 2119 2906 1806 2906 
Q 1569 2906 1367 2781 
Q 1166 2656 1075 2415 
Q 984 2175 984 1722 
L 984 0 
L 422 0 
z
" transform="scale(0.015625)"/>
      <path id="ArialMT-66" d="M 556 0 
L 556 2881 
L 59 2881 
L 59 3319 
L 556 3319 
L 556 3672 
Q 556 4006 616 4169 
Q 697 4388 901 4523 
Q 1106 4659 1475 4659 
Q 1713 4659 2000 4603 
L 1916 4113 
Q 1741 4144 1584 4144 
Q 1328 4144 1222 4034 
Q 1116 3925 1116 3625 
L 1116 3319 
L 1763 3319 
L 1763 2881 
L 1116 2881 
L 1116 0 
L 556 0 
z
" transform="scale(0.015625)"/>
     </defs>
     <use xlink:href="#ArialMT-6d"/>
     <use xlink:href="#ArialMT-69" x="83.300781"/>
     <use xlink:href="#ArialMT-6e" x="105.517578"/>
     <use xlink:href="#ArialMT-64" x="161.132812"/>
     <use xlink:href="#ArialMT-66" x="216.748047"/>
     <use xlink:href="#ArialMT-75" x="244.53125"/>
     <use xlink:href="#ArialMT-6c" x="300.146484"/>
     <use xlink:href="#ArialMT-6e" x="322.363281"/>
     <use xlink:href="#ArialMT-65" x="377.978516"/>
     <use xlink:href="#ArialMT-73" x="433.59375"/>
     <use xlink:href="#ArialMT-73" x="483.59375"/>
    </g>
   </g>
  </g>
 </g>
 <defs>
  <clipPath id="p9dfd954492">
   <rect x="53.235156" y="21.789375" width="161.536563" height="165.786563"/>
  </clipPath>
  <clipPath id="p601cfa2843">
   <rect x="252.731719" y="21.789375" width="161.536562" height="165.786563"/>
  </clipPath>
  <clipPath id="p1a49d6d922">
   <rect x="53.235156" y="214.582812" width="161.536563" height="165.786563"/>
  </clipPath>
  <clipPath id="p68a1e83950">
   <rect x="252.731719" y="214.582812" width="161.536562" height="165.786563"/>
  </clipPath>
 </defs>
</svg>
