<?xml version="1.0" encoding="utf-8" standalone="no"?>
<!DOCTYPE svg PUBLIC "-//W3C//DTD SVG 1.1//EN"
  "http://www.w3.org/Graphics/SVG/1.1/DTD/svg11.dtd">
<svg xmlns:xlink="http://www.w3.org/1999/xlink" width="421.537344pt" height="422.056719pt" viewBox="0 0 421.537344 422.056719" xmlns="http://www.w3.org/2000/svg" version="1.1">
 <metadata>
  <rdf:RDF xmlns:dc="http://purl.org/dc/elements/1.1/" xmlns:cc="http://creativecommons.org/ns#" xmlns:rdf="http://www.w3.org/1999/02/22-rdf-syntax-ns#">
   <cc:Work>
    <dc:type rdf:resource="http://purl.org/dc/dcmitype/StillImage"/>
    <dc:date>2022-04-06T15:49:25.951369</dc:date>
    <dc:format>image/svg+xml</dc:format>
    <dc:creator>
     <cc:Agent>
      <dc:title>Matplotlib v3.5.1, https://matplotlib.org/</dc:title>
     </cc:Agent>
    </dc:creator>
   </cc:Work>
  </rdf:RDF>
 </metadata>
 <defs>
  <style type="text/css">*{stroke-linejoin: round; stroke-linecap: butt}</style>
 </defs>
 <g id="figure_1">
  <g id="patch_1">
   <path d="M 0 422.056719 
L 421.537344 422.056719 
L 421.537344 0 
L 0 0 
z
" style="fill: #ffffff"/>
  </g>
  <g id="axes_1">
   <g id="patch_2">
    <path d="M 50.179219 187.5525 
L 223.308054 187.5525 
L 223.308054 21.789375 
L 50.179219 21.789375 
z
" style="fill: #eaeaf2"/>
   </g>
   <g id="matplotlib.axis_1">
    <g id="xtick_1">
     <g id="line2d_1">
      <path d="M 84.280353 187.5525 
L 84.280353 21.789375 
" clip-path="url(#pf7410ea073)" style="fill: none; stroke: #ffffff; stroke-linecap: round"/>
     </g>
    </g>
    <g id="xtick_2">
     <g id="line2d_2">
      <path d="M 119.255875 187.5525 
L 119.255875 21.789375 
" clip-path="url(#pf7410ea073)" style="fill: none; stroke: #ffffff; stroke-linecap: round"/>
     </g>
    </g>
    <g id="xtick_3">
     <g id="line2d_3">
      <path d="M 154.231397 187.5525 
L 154.231397 21.789375 
" clip-path="url(#pf7410ea073)" style="fill: none; stroke: #ffffff; stroke-linecap: round"/>
     </g>
    </g>
    <g id="xtick_4">
     <g id="line2d_4">
      <path d="M 189.20692 187.5525 
L 189.20692 21.789375 
" clip-path="url(#pf7410ea073)" style="fill: none; stroke: #ffffff; stroke-linecap: round"/>
     </g>
    </g>
   </g>
   <g id="matplotlib.axis_2">
    <g id="ytick_1">
     <g id="line2d_5">
      <path d="M 50.179219 180.017812 
L 223.308054 180.017812 
" clip-path="url(#pf7410ea073)" style="fill: none; stroke: #ffffff; stroke-linecap: round"/>
     </g>
     <g id="text_1">
      <!-- 0 -->
      <g style="fill: #262626" transform="translate(34.562188 183.954609)scale(0.11 -0.11)">
       <defs>
        <path id="ArialMT-30" d="M 266 2259 
Q 266 3072 433 3567 
Q 600 4063 929 4331 
Q 1259 4600 1759 4600 
Q 2128 4600 2406 4451 
Q 2684 4303 2865 4023 
Q 3047 3744 3150 3342 
Q 3253 2941 3253 2259 
Q 3253 1453 3087 958 
Q 2922 463 2592 192 
Q 2263 -78 1759 -78 
Q 1097 -78 719 397 
Q 266 969 266 2259 
z
M 844 2259 
Q 844 1131 1108 757 
Q 1372 384 1759 384 
Q 2147 384 2411 759 
Q 2675 1134 2675 2259 
Q 2675 3391 2411 3762 
Q 2147 4134 1753 4134 
Q 1366 4134 1134 3806 
Q 844 3388 844 2259 
z
" transform="scale(0.015625)"/>
       </defs>
       <use xlink:href="#ArialMT-30"/>
      </g>
     </g>
    </g>
    <g id="ytick_2">
     <g id="line2d_6">
      <path d="M 50.179219 135.814312 
L 223.308054 135.814312 
" clip-path="url(#pf7410ea073)" style="fill: none; stroke: #ffffff; stroke-linecap: round"/>
     </g>
     <g id="text_2">
      <!-- 50 -->
      <g style="fill: #262626" transform="translate(28.445156 139.751109)scale(0.11 -0.11)">
       <defs>
        <path id="ArialMT-35" d="M 266 1200 
L 856 1250 
Q 922 819 1161 601 
Q 1400 384 1738 384 
Q 2144 384 2425 690 
Q 2706 997 2706 1503 
Q 2706 1984 2436 2262 
Q 2166 2541 1728 2541 
Q 1456 2541 1237 2417 
Q 1019 2294 894 2097 
L 366 2166 
L 809 4519 
L 3088 4519 
L 3088 3981 
L 1259 3981 
L 1013 2750 
Q 1425 3038 1878 3038 
Q 2478 3038 2890 2622 
Q 3303 2206 3303 1553 
Q 3303 931 2941 478 
Q 2500 -78 1738 -78 
Q 1113 -78 717 272 
Q 322 622 266 1200 
z
" transform="scale(0.015625)"/>
       </defs>
       <use xlink:href="#ArialMT-35"/>
       <use xlink:href="#ArialMT-30" x="55.615234"/>
      </g>
     </g>
    </g>
    <g id="ytick_3">
     <g id="line2d_7">
      <path d="M 50.179219 91.610812 
L 223.308054 91.610812 
" clip-path="url(#pf7410ea073)" style="fill: none; stroke: #ffffff; stroke-linecap: round"/>
     </g>
     <g id="text_3">
      <!-- 100 -->
      <g style="fill: #262626" transform="translate(22.328125 95.547609)scale(0.11 -0.11)">
       <defs>
        <path id="ArialMT-31" d="M 2384 0 
L 1822 0 
L 1822 3584 
Q 1619 3391 1289 3197 
Q 959 3003 697 2906 
L 697 3450 
Q 1169 3672 1522 3987 
Q 1875 4303 2022 4600 
L 2384 4600 
L 2384 0 
z
" transform="scale(0.015625)"/>
       </defs>
       <use xlink:href="#ArialMT-31"/>
       <use xlink:href="#ArialMT-30" x="55.615234"/>
       <use xlink:href="#ArialMT-30" x="111.230469"/>
      </g>
     </g>
    </g>
    <g id="ytick_4">
     <g id="line2d_8">
      <path d="M 50.179219 47.407313 
L 223.308054 47.407313 
" clip-path="url(#pf7410ea073)" style="fill: none; stroke: #ffffff; stroke-linecap: round"/>
     </g>
     <g id="text_4">
      <!-- 150 -->
      <g style="fill: #262626" transform="translate(22.328125 51.344109)scale(0.11 -0.11)">
       <use xlink:href="#ArialMT-31"/>
       <use xlink:href="#ArialMT-35" x="55.615234"/>
       <use xlink:href="#ArialMT-30" x="111.230469"/>
      </g>
     </g>
    </g>
    <g id="text_5">
     <!-- Occurrences per 1000 theses -->
     <g style="fill: #262626" transform="translate(15.943125 183.374062)rotate(-90)scale(0.12 -0.12)">
      <defs>
       <path id="ArialMT-4f" d="M 309 2231 
Q 309 3372 921 4017 
Q 1534 4663 2503 4663 
Q 3138 4663 3647 4359 
Q 4156 4056 4423 3514 
Q 4691 2972 4691 2284 
Q 4691 1588 4409 1038 
Q 4128 488 3612 205 
Q 3097 -78 2500 -78 
Q 1853 -78 1343 234 
Q 834 547 571 1087 
Q 309 1628 309 2231 
z
M 934 2222 
Q 934 1394 1379 917 
Q 1825 441 2497 441 
Q 3181 441 3623 922 
Q 4066 1403 4066 2288 
Q 4066 2847 3877 3264 
Q 3688 3681 3323 3911 
Q 2959 4141 2506 4141 
Q 1863 4141 1398 3698 
Q 934 3256 934 2222 
z
" transform="scale(0.015625)"/>
       <path id="ArialMT-63" d="M 2588 1216 
L 3141 1144 
Q 3050 572 2676 248 
Q 2303 -75 1759 -75 
Q 1078 -75 664 370 
Q 250 816 250 1647 
Q 250 2184 428 2587 
Q 606 2991 970 3192 
Q 1334 3394 1763 3394 
Q 2303 3394 2647 3120 
Q 2991 2847 3088 2344 
L 2541 2259 
Q 2463 2594 2264 2762 
Q 2066 2931 1784 2931 
Q 1359 2931 1093 2626 
Q 828 2322 828 1663 
Q 828 994 1084 691 
Q 1341 388 1753 388 
Q 2084 388 2306 591 
Q 2528 794 2588 1216 
z
" transform="scale(0.015625)"/>
       <path id="ArialMT-75" d="M 2597 0 
L 2597 488 
Q 2209 -75 1544 -75 
Q 1250 -75 995 37 
Q 741 150 617 320 
Q 494 491 444 738 
Q 409 903 409 1263 
L 409 3319 
L 972 3319 
L 972 1478 
Q 972 1038 1006 884 
Q 1059 663 1231 536 
Q 1403 409 1656 409 
Q 1909 409 2131 539 
Q 2353 669 2445 892 
Q 2538 1116 2538 1541 
L 2538 3319 
L 3100 3319 
L 3100 0 
L 2597 0 
z
" transform="scale(0.015625)"/>
       <path id="ArialMT-72" d="M 416 0 
L 416 3319 
L 922 3319 
L 922 2816 
Q 1116 3169 1280 3281 
Q 1444 3394 1641 3394 
Q 1925 3394 2219 3213 
L 2025 2691 
Q 1819 2813 1613 2813 
Q 1428 2813 1281 2702 
Q 1134 2591 1072 2394 
Q 978 2094 978 1738 
L 978 0 
L 416 0 
z
" transform="scale(0.015625)"/>
       <path id="ArialMT-65" d="M 2694 1069 
L 3275 997 
Q 3138 488 2766 206 
Q 2394 -75 1816 -75 
Q 1088 -75 661 373 
Q 234 822 234 1631 
Q 234 2469 665 2931 
Q 1097 3394 1784 3394 
Q 2450 3394 2872 2941 
Q 3294 2488 3294 1666 
Q 3294 1616 3291 1516 
L 816 1516 
Q 847 969 1125 678 
Q 1403 388 1819 388 
Q 2128 388 2347 550 
Q 2566 713 2694 1069 
z
M 847 1978 
L 2700 1978 
Q 2663 2397 2488 2606 
Q 2219 2931 1791 2931 
Q 1403 2931 1139 2672 
Q 875 2413 847 1978 
z
" transform="scale(0.015625)"/>
       <path id="ArialMT-6e" d="M 422 0 
L 422 3319 
L 928 3319 
L 928 2847 
Q 1294 3394 1984 3394 
Q 2284 3394 2536 3286 
Q 2788 3178 2913 3003 
Q 3038 2828 3088 2588 
Q 3119 2431 3119 2041 
L 3119 0 
L 2556 0 
L 2556 2019 
Q 2556 2363 2490 2533 
Q 2425 2703 2258 2804 
Q 2091 2906 1866 2906 
Q 1506 2906 1245 2678 
Q 984 2450 984 1813 
L 984 0 
L 422 0 
z
" transform="scale(0.015625)"/>
       <path id="ArialMT-73" d="M 197 991 
L 753 1078 
Q 800 744 1014 566 
Q 1228 388 1613 388 
Q 2000 388 2187 545 
Q 2375 703 2375 916 
Q 2375 1106 2209 1216 
Q 2094 1291 1634 1406 
Q 1016 1563 777 1677 
Q 538 1791 414 1992 
Q 291 2194 291 2438 
Q 291 2659 392 2848 
Q 494 3038 669 3163 
Q 800 3259 1026 3326 
Q 1253 3394 1513 3394 
Q 1903 3394 2198 3281 
Q 2494 3169 2634 2976 
Q 2775 2784 2828 2463 
L 2278 2388 
Q 2241 2644 2061 2787 
Q 1881 2931 1553 2931 
Q 1166 2931 1000 2803 
Q 834 2675 834 2503 
Q 834 2394 903 2306 
Q 972 2216 1119 2156 
Q 1203 2125 1616 2013 
Q 2213 1853 2448 1751 
Q 2684 1650 2818 1456 
Q 2953 1263 2953 975 
Q 2953 694 2789 445 
Q 2625 197 2315 61 
Q 2006 -75 1616 -75 
Q 969 -75 630 194 
Q 291 463 197 991 
z
" transform="scale(0.015625)"/>
       <path id="ArialMT-20" transform="scale(0.015625)"/>
       <path id="ArialMT-70" d="M 422 -1272 
L 422 3319 
L 934 3319 
L 934 2888 
Q 1116 3141 1344 3267 
Q 1572 3394 1897 3394 
Q 2322 3394 2647 3175 
Q 2972 2956 3137 2557 
Q 3303 2159 3303 1684 
Q 3303 1175 3120 767 
Q 2938 359 2589 142 
Q 2241 -75 1856 -75 
Q 1575 -75 1351 44 
Q 1128 163 984 344 
L 984 -1272 
L 422 -1272 
z
M 931 1641 
Q 931 1000 1190 694 
Q 1450 388 1819 388 
Q 2194 388 2461 705 
Q 2728 1022 2728 1688 
Q 2728 2322 2467 2637 
Q 2206 2953 1844 2953 
Q 1484 2953 1207 2617 
Q 931 2281 931 1641 
z
" transform="scale(0.015625)"/>
       <path id="ArialMT-74" d="M 1650 503 
L 1731 6 
Q 1494 -44 1306 -44 
Q 1000 -44 831 53 
Q 663 150 594 308 
Q 525 466 525 972 
L 525 2881 
L 113 2881 
L 113 3319 
L 525 3319 
L 525 4141 
L 1084 4478 
L 1084 3319 
L 1650 3319 
L 1650 2881 
L 1084 2881 
L 1084 941 
Q 1084 700 1114 631 
Q 1144 563 1211 522 
Q 1278 481 1403 481 
Q 1497 481 1650 503 
z
" transform="scale(0.015625)"/>
       <path id="ArialMT-68" d="M 422 0 
L 422 4581 
L 984 4581 
L 984 2938 
Q 1378 3394 1978 3394 
Q 2347 3394 2619 3248 
Q 2891 3103 3008 2847 
Q 3125 2591 3125 2103 
L 3125 0 
L 2563 0 
L 2563 2103 
Q 2563 2525 2380 2717 
Q 2197 2909 1863 2909 
Q 1613 2909 1392 2779 
Q 1172 2650 1078 2428 
Q 984 2206 984 1816 
L 984 0 
L 422 0 
z
" transform="scale(0.015625)"/>
      </defs>
      <use xlink:href="#ArialMT-4f"/>
      <use xlink:href="#ArialMT-63" x="77.783203"/>
      <use xlink:href="#ArialMT-63" x="127.783203"/>
      <use xlink:href="#ArialMT-75" x="177.783203"/>
      <use xlink:href="#ArialMT-72" x="233.398438"/>
      <use xlink:href="#ArialMT-72" x="266.699219"/>
      <use xlink:href="#ArialMT-65" x="300"/>
      <use xlink:href="#ArialMT-6e" x="355.615234"/>
      <use xlink:href="#ArialMT-63" x="411.230469"/>
      <use xlink:href="#ArialMT-65" x="461.230469"/>
      <use xlink:href="#ArialMT-73" x="516.845703"/>
      <use xlink:href="#ArialMT-20" x="566.845703"/>
      <use xlink:href="#ArialMT-70" x="594.628906"/>
      <use xlink:href="#ArialMT-65" x="650.244141"/>
      <use xlink:href="#ArialMT-72" x="705.859375"/>
      <use xlink:href="#ArialMT-20" x="739.160156"/>
      <use xlink:href="#ArialMT-31" x="766.943359"/>
      <use xlink:href="#ArialMT-30" x="822.558594"/>
      <use xlink:href="#ArialMT-30" x="878.173828"/>
      <use xlink:href="#ArialMT-30" x="933.789062"/>
      <use xlink:href="#ArialMT-20" x="989.404297"/>
      <use xlink:href="#ArialMT-74" x="1017.1875"/>
      <use xlink:href="#ArialMT-68" x="1044.970703"/>
      <use xlink:href="#ArialMT-65" x="1100.585938"/>
      <use xlink:href="#ArialMT-73" x="1156.201172"/>
      <use xlink:href="#ArialMT-65" x="1206.201172"/>
      <use xlink:href="#ArialMT-73" x="1261.816406"/>
     </g>
    </g>
   </g>
   <g id="line2d_9">
    <path d="M 58.048711 96.90012 
L 59.797487 73.073861 
L 61.546263 116.364772 
L 63.29504 82.465261 
L 65.043816 99.034301 
L 66.792592 64.453107 
L 68.541368 71.647942 
L 70.290144 57.693662 
L 72.03892 77.446155 
L 73.787696 74.313791 
L 75.536472 105.90416 
L 77.285249 81.787813 
L 79.034025 77.322812 
L 80.782801 51.60541 
L 82.531577 79.555313 
L 84.280353 125.106632 
L 86.029129 101.082991 
L 87.777905 63.008548 
L 89.526681 60.817363 
L 91.275457 29.324063 
L 93.024234 131.97053 
L 94.77301 108.336461 
L 96.521786 93.907098 
L 98.270562 78.681726 
L 100.019338 70.119608 
L 101.768114 76.009577 
L 103.51689 78.530185 
L 105.265666 56.967384 
L 107.014442 64.633676 
L 108.763219 72.406296 
L 110.511995 53.204493 
L 112.260771 66.35167 
L 114.009547 67.84549 
L 115.758323 84.956522 
L 117.507099 60.3 
L 119.255875 58.850858 
L 121.004651 69.025083 
L 122.753427 74.771384 
L 124.502204 88.739123 
L 126.25098 94.367378 
L 127.999756 98.324244 
L 129.748532 97.089973 
L 131.497308 114.3592 
L 133.246084 91.789653 
L 134.99486 99.130488 
L 136.743636 103.027859 
L 138.492412 86.869319 
L 140.241189 97.693018 
L 141.989965 86.457816 
L 143.738741 92.882024 
L 145.487517 90.900176 
L 147.236293 93.625957 
L 148.985069 85.651808 
L 150.733845 92.564254 
L 152.482621 91.133121 
L 154.231397 95.276585 
L 155.980174 98.714182 
L 157.72895 100.468944 
L 159.477726 102.45675 
L 161.226502 96.389569 
L 162.975278 107.215662 
L 164.724054 101.290197 
L 166.47283 102.595305 
L 168.221606 103.800381 
L 169.970383 110.976917 
L 171.719159 103.753273 
L 173.467935 115.594337 
L 175.216711 111.120687 
L 176.965487 114.123611 
L 178.714263 114.522544 
L 180.463039 117.865717 
L 182.211815 116.011509 
L 183.960591 117.398993 
L 185.709368 115.954769 
L 187.458144 116.821648 
L 189.20692 117.691131 
L 190.955696 122.724548 
L 192.704472 122.064638 
L 194.453248 117.745627 
L 196.202024 122.553915 
L 197.9508 122.121402 
L 199.699576 121.199806 
L 201.448353 122.575105 
L 203.197129 124.39311 
L 204.945905 124.342701 
L 206.694681 125.935309 
L 208.443457 123.950009 
L 210.192233 122.935358 
L 211.941009 127.0553 
L 213.689785 124.766301 
L 215.438561 124.680132 
" clip-path="url(#pf7410ea073)" style="fill: none; stroke: #1f77b4; stroke-width: 1.5; stroke-linecap: round"/>
   </g>
   <g id="patch_3">
    <path d="M 50.179219 187.5525 
L 50.179219 21.789375 
" style="fill: none; stroke: #ffffff; stroke-width: 1.25; stroke-linejoin: miter; stroke-linecap: square"/>
   </g>
   <g id="patch_4">
    <path d="M 50.179219 187.5525 
L 223.308054 187.5525 
" style="fill: none; stroke: #ffffff; stroke-width: 1.25; stroke-linejoin: miter; stroke-linecap: square"/>
   </g>
   <g id="text_6">
    <!-- study -->
    <g style="fill: #262626" transform="translate(122.403636 15.789375)scale(0.12 -0.12)">
     <defs>
      <path id="ArialMT-64" d="M 2575 0 
L 2575 419 
Q 2259 -75 1647 -75 
Q 1250 -75 917 144 
Q 584 363 401 755 
Q 219 1147 219 1656 
Q 219 2153 384 2558 
Q 550 2963 881 3178 
Q 1213 3394 1622 3394 
Q 1922 3394 2156 3267 
Q 2391 3141 2538 2938 
L 2538 4581 
L 3097 4581 
L 3097 0 
L 2575 0 
z
M 797 1656 
Q 797 1019 1065 703 
Q 1334 388 1700 388 
Q 2069 388 2326 689 
Q 2584 991 2584 1609 
Q 2584 2291 2321 2609 
Q 2059 2928 1675 2928 
Q 1300 2928 1048 2622 
Q 797 2316 797 1656 
z
" transform="scale(0.015625)"/>
      <path id="ArialMT-79" d="M 397 -1278 
L 334 -750 
Q 519 -800 656 -800 
Q 844 -800 956 -737 
Q 1069 -675 1141 -563 
Q 1194 -478 1313 -144 
Q 1328 -97 1363 -6 
L 103 3319 
L 709 3319 
L 1400 1397 
Q 1534 1031 1641 628 
Q 1738 1016 1872 1384 
L 2581 3319 
L 3144 3319 
L 1881 -56 
Q 1678 -603 1566 -809 
Q 1416 -1088 1222 -1217 
Q 1028 -1347 759 -1347 
Q 597 -1347 397 -1278 
z
" transform="scale(0.015625)"/>
     </defs>
     <use xlink:href="#ArialMT-73"/>
     <use xlink:href="#ArialMT-74" x="50"/>
     <use xlink:href="#ArialMT-75" x="77.783203"/>
     <use xlink:href="#ArialMT-64" x="133.398438"/>
     <use xlink:href="#ArialMT-79" x="189.013672"/>
    </g>
   </g>
  </g>
  <g id="axes_2">
   <g id="patch_5">
    <path d="M 241.208509 187.5525 
L 414.337344 187.5525 
L 414.337344 21.789375 
L 241.208509 21.789375 
z
" style="fill: #eaeaf2"/>
   </g>
   <g id="matplotlib.axis_3">
    <g id="xtick_5">
     <g id="line2d_10">
      <path d="M 275.309643 187.5525 
L 275.309643 21.789375 
" clip-path="url(#p34b60267ac)" style="fill: none; stroke: #ffffff; stroke-linecap: round"/>
     </g>
    </g>
    <g id="xtick_6">
     <g id="line2d_11">
      <path d="M 310.285165 187.5525 
L 310.285165 21.789375 
" clip-path="url(#p34b60267ac)" style="fill: none; stroke: #ffffff; stroke-linecap: round"/>
     </g>
    </g>
    <g id="xtick_7">
     <g id="line2d_12">
      <path d="M 345.260687 187.5525 
L 345.260687 21.789375 
" clip-path="url(#p34b60267ac)" style="fill: none; stroke: #ffffff; stroke-linecap: round"/>
     </g>
    </g>
    <g id="xtick_8">
     <g id="line2d_13">
      <path d="M 380.23621 187.5525 
L 380.23621 21.789375 
" clip-path="url(#p34b60267ac)" style="fill: none; stroke: #ffffff; stroke-linecap: round"/>
     </g>
    </g>
   </g>
   <g id="matplotlib.axis_4">
    <g id="ytick_5">
     <g id="line2d_14">
      <path d="M 241.208509 180.017812 
L 414.337344 180.017812 
" clip-path="url(#p34b60267ac)" style="fill: none; stroke: #ffffff; stroke-linecap: round"/>
     </g>
    </g>
    <g id="ytick_6">
     <g id="line2d_15">
      <path d="M 241.208509 135.814312 
L 414.337344 135.814312 
" clip-path="url(#p34b60267ac)" style="fill: none; stroke: #ffffff; stroke-linecap: round"/>
     </g>
    </g>
    <g id="ytick_7">
     <g id="line2d_16">
      <path d="M 241.208509 91.610812 
L 414.337344 91.610812 
" clip-path="url(#p34b60267ac)" style="fill: none; stroke: #ffffff; stroke-linecap: round"/>
     </g>
    </g>
    <g id="ytick_8">
     <g id="line2d_17">
      <path d="M 241.208509 47.407313 
L 414.337344 47.407313 
" clip-path="url(#p34b60267ac)" style="fill: none; stroke: #ffffff; stroke-linecap: round"/>
     </g>
    </g>
   </g>
   <g id="line2d_18">
    <path d="M 249.078001 142.237043 
L 250.826777 137.240232 
L 252.575553 144.655012 
L 254.324329 88.562295 
L 256.073105 132.777431 
L 257.821882 110.678989 
L 259.570658 83.055296 
L 261.319434 85.494605 
L 263.06821 92.099249 
L 264.816986 112.751617 
L 266.565762 100.610327 
L 268.314538 104.112812 
L 270.063314 117.507812 
L 271.812091 91.116919 
L 273.560867 123.758812 
L 275.309643 114.124396 
L 277.058419 53.722098 
L 278.807195 76.009577 
L 280.555971 90.617475 
L 282.304747 119.740312 
L 284.053523 93.532704 
L 285.802299 100.371867 
L 287.551076 111.129241 
L 289.299852 78.681726 
L 291.048628 101.867978 
L 292.797404 83.101048 
L 294.54618 53.722098 
L 296.294956 79.684386 
L 298.043732 79.259835 
L 299.792508 83.995228 
L 301.541284 62.262587 
L 303.290061 60.938996 
L 305.038837 69.746716 
L 306.787613 65.944264 
L 308.536389 62.141813 
L 310.285165 72.313853 
L 312.033941 70.315696 
L 313.782717 58.399717 
L 315.531493 54.894216 
L 317.280269 39.236064 
L 319.029046 57.881884 
L 320.777822 37.115375 
L 322.526598 55.332771 
L 324.275374 61.982843 
L 326.02415 64.580626 
L 327.772926 66.974027 
L 329.521702 73.754549 
L 331.270478 69.739449 
L 333.019254 70.912462 
L 334.768031 67.22666 
L 336.516807 68.620767 
L 338.265583 78.462491 
L 340.014359 75.689945 
L 341.763135 76.947547 
L 343.511911 80.04386 
L 345.260687 81.946504 
L 347.009463 86.732595 
L 348.758239 94.447316 
L 350.507016 99.303861 
L 352.255792 90.109793 
L 354.004568 96.003516 
L 355.753344 100.849557 
L 357.50212 105.949349 
L 359.250896 115.15469 
L 360.999672 110.177215 
L 362.748448 116.637555 
L 364.497225 117.31406 
L 366.246001 122.581585 
L 367.994777 118.423808 
L 369.743553 126.948065 
L 371.492329 130.741462 
L 373.241105 132.491083 
L 374.989881 133.558688 
L 376.738657 136.992756 
L 378.487433 139.890878 
L 380.23621 143.431616 
L 381.984986 144.200233 
L 383.733762 143.584015 
L 385.482538 146.443771 
L 387.231314 147.991963 
L 388.98009 148.896129 
L 390.728866 151.28377 
L 392.477642 156.153986 
L 394.226418 154.684388 
L 395.975195 156.291056 
L 397.723971 156.681187 
L 399.472747 159.085173 
L 401.221523 161.560013 
L 402.970299 161.615584 
L 404.719075 160.730179 
L 406.467851 164.29897 
" clip-path="url(#p34b60267ac)" style="fill: none; stroke: #1f77b4; stroke-width: 1.5; stroke-linecap: round"/>
   </g>
   <g id="patch_6">
    <path d="M 241.208509 187.5525 
L 241.208509 21.789375 
" style="fill: none; stroke: #ffffff; stroke-width: 1.25; stroke-linejoin: miter; stroke-linecap: square"/>
   </g>
   <g id="patch_7">
    <path d="M 241.208509 187.5525 
L 414.337344 187.5525 
" style="fill: none; stroke: #ffffff; stroke-width: 1.25; stroke-linejoin: miter; stroke-linecap: square"/>
   </g>
   <g id="text_7">
    <!-- studies -->
    <g style="fill: #262626" transform="translate(308.763239 15.789375)scale(0.12 -0.12)">
     <defs>
      <path id="ArialMT-69" d="M 425 3934 
L 425 4581 
L 988 4581 
L 988 3934 
L 425 3934 
z
M 425 0 
L 425 3319 
L 988 3319 
L 988 0 
L 425 0 
z
" transform="scale(0.015625)"/>
     </defs>
     <use xlink:href="#ArialMT-73"/>
     <use xlink:href="#ArialMT-74" x="50"/>
     <use xlink:href="#ArialMT-75" x="77.783203"/>
     <use xlink:href="#ArialMT-64" x="133.398438"/>
     <use xlink:href="#ArialMT-69" x="189.013672"/>
     <use xlink:href="#ArialMT-65" x="211.230469"/>
     <use xlink:href="#ArialMT-73" x="266.845703"/>
    </g>
   </g>
  </g>
  <g id="axes_3">
   <g id="patch_8">
    <path d="M 50.179219 380.3225 
L 223.308054 380.3225 
L 223.308054 214.559375 
L 50.179219 214.559375 
z
" style="fill: #eaeaf2"/>
   </g>
   <g id="matplotlib.axis_5">
    <g id="xtick_9">
     <g id="line2d_19">
      <path d="M 84.280353 380.3225 
L 84.280353 214.559375 
" clip-path="url(#p52fd6b2c8f)" style="fill: none; stroke: #ffffff; stroke-linecap: round"/>
     </g>
     <g id="text_8">
      <!-- 1940 -->
      <g style="fill: #262626" transform="translate(72.04629 397.696094)scale(0.11 -0.11)">
       <defs>
        <path id="ArialMT-39" d="M 350 1059 
L 891 1109 
Q 959 728 1153 556 
Q 1347 384 1650 384 
Q 1909 384 2104 503 
Q 2300 622 2425 820 
Q 2550 1019 2634 1356 
Q 2719 1694 2719 2044 
Q 2719 2081 2716 2156 
Q 2547 1888 2255 1720 
Q 1963 1553 1622 1553 
Q 1053 1553 659 1965 
Q 266 2378 266 3053 
Q 266 3750 677 4175 
Q 1088 4600 1706 4600 
Q 2153 4600 2523 4359 
Q 2894 4119 3086 3673 
Q 3278 3228 3278 2384 
Q 3278 1506 3087 986 
Q 2897 466 2520 194 
Q 2144 -78 1638 -78 
Q 1100 -78 759 220 
Q 419 519 350 1059 
z
M 2653 3081 
Q 2653 3566 2395 3850 
Q 2138 4134 1775 4134 
Q 1400 4134 1122 3828 
Q 844 3522 844 3034 
Q 844 2597 1108 2323 
Q 1372 2050 1759 2050 
Q 2150 2050 2401 2323 
Q 2653 2597 2653 3081 
z
" transform="scale(0.015625)"/>
        <path id="ArialMT-34" d="M 2069 0 
L 2069 1097 
L 81 1097 
L 81 1613 
L 2172 4581 
L 2631 4581 
L 2631 1613 
L 3250 1613 
L 3250 1097 
L 2631 1097 
L 2631 0 
L 2069 0 
z
M 2069 1613 
L 2069 3678 
L 634 1613 
L 2069 1613 
z
" transform="scale(0.015625)"/>
       </defs>
       <use xlink:href="#ArialMT-31"/>
       <use xlink:href="#ArialMT-39" x="55.615234"/>
       <use xlink:href="#ArialMT-34" x="111.230469"/>
       <use xlink:href="#ArialMT-30" x="166.845703"/>
      </g>
     </g>
    </g>
    <g id="xtick_10">
     <g id="line2d_20">
      <path d="M 119.255875 380.3225 
L 119.255875 214.559375 
" clip-path="url(#p52fd6b2c8f)" style="fill: none; stroke: #ffffff; stroke-linecap: round"/>
     </g>
     <g id="text_9">
      <!-- 1960 -->
      <g style="fill: #262626" transform="translate(107.021813 397.696094)scale(0.11 -0.11)">
       <defs>
        <path id="ArialMT-36" d="M 3184 3459 
L 2625 3416 
Q 2550 3747 2413 3897 
Q 2184 4138 1850 4138 
Q 1581 4138 1378 3988 
Q 1113 3794 959 3422 
Q 806 3050 800 2363 
Q 1003 2672 1297 2822 
Q 1591 2972 1913 2972 
Q 2475 2972 2870 2558 
Q 3266 2144 3266 1488 
Q 3266 1056 3080 686 
Q 2894 316 2569 119 
Q 2244 -78 1831 -78 
Q 1128 -78 684 439 
Q 241 956 241 2144 
Q 241 3472 731 4075 
Q 1159 4600 1884 4600 
Q 2425 4600 2770 4297 
Q 3116 3994 3184 3459 
z
M 888 1484 
Q 888 1194 1011 928 
Q 1134 663 1356 523 
Q 1578 384 1822 384 
Q 2178 384 2434 671 
Q 2691 959 2691 1453 
Q 2691 1928 2437 2201 
Q 2184 2475 1800 2475 
Q 1419 2475 1153 2201 
Q 888 1928 888 1484 
z
" transform="scale(0.015625)"/>
       </defs>
       <use xlink:href="#ArialMT-31"/>
       <use xlink:href="#ArialMT-39" x="55.615234"/>
       <use xlink:href="#ArialMT-36" x="111.230469"/>
       <use xlink:href="#ArialMT-30" x="166.845703"/>
      </g>
     </g>
    </g>
    <g id="xtick_11">
     <g id="line2d_21">
      <path d="M 154.231397 380.3225 
L 154.231397 214.559375 
" clip-path="url(#p52fd6b2c8f)" style="fill: none; stroke: #ffffff; stroke-linecap: round"/>
     </g>
     <g id="text_10">
      <!-- 1980 -->
      <g style="fill: #262626" transform="translate(141.997335 397.696094)scale(0.11 -0.11)">
       <defs>
        <path id="ArialMT-38" d="M 1131 2484 
Q 781 2613 612 2850 
Q 444 3088 444 3419 
Q 444 3919 803 4259 
Q 1163 4600 1759 4600 
Q 2359 4600 2725 4251 
Q 3091 3903 3091 3403 
Q 3091 3084 2923 2848 
Q 2756 2613 2416 2484 
Q 2838 2347 3058 2040 
Q 3278 1734 3278 1309 
Q 3278 722 2862 322 
Q 2447 -78 1769 -78 
Q 1091 -78 675 323 
Q 259 725 259 1325 
Q 259 1772 486 2073 
Q 713 2375 1131 2484 
z
M 1019 3438 
Q 1019 3113 1228 2906 
Q 1438 2700 1772 2700 
Q 2097 2700 2305 2904 
Q 2513 3109 2513 3406 
Q 2513 3716 2298 3927 
Q 2084 4138 1766 4138 
Q 1444 4138 1231 3931 
Q 1019 3725 1019 3438 
z
M 838 1322 
Q 838 1081 952 856 
Q 1066 631 1291 507 
Q 1516 384 1775 384 
Q 2178 384 2440 643 
Q 2703 903 2703 1303 
Q 2703 1709 2433 1975 
Q 2163 2241 1756 2241 
Q 1359 2241 1098 1978 
Q 838 1716 838 1322 
z
" transform="scale(0.015625)"/>
       </defs>
       <use xlink:href="#ArialMT-31"/>
       <use xlink:href="#ArialMT-39" x="55.615234"/>
       <use xlink:href="#ArialMT-38" x="111.230469"/>
       <use xlink:href="#ArialMT-30" x="166.845703"/>
      </g>
     </g>
    </g>
    <g id="xtick_12">
     <g id="line2d_22">
      <path d="M 189.20692 380.3225 
L 189.20692 214.559375 
" clip-path="url(#p52fd6b2c8f)" style="fill: none; stroke: #ffffff; stroke-linecap: round"/>
     </g>
     <g id="text_11">
      <!-- 2000 -->
      <g style="fill: #262626" transform="translate(176.972857 397.696094)scale(0.11 -0.11)">
       <defs>
        <path id="ArialMT-32" d="M 3222 541 
L 3222 0 
L 194 0 
Q 188 203 259 391 
Q 375 700 629 1000 
Q 884 1300 1366 1694 
Q 2113 2306 2375 2664 
Q 2638 3022 2638 3341 
Q 2638 3675 2398 3904 
Q 2159 4134 1775 4134 
Q 1369 4134 1125 3890 
Q 881 3647 878 3216 
L 300 3275 
Q 359 3922 746 4261 
Q 1134 4600 1788 4600 
Q 2447 4600 2831 4234 
Q 3216 3869 3216 3328 
Q 3216 3053 3103 2787 
Q 2991 2522 2730 2228 
Q 2469 1934 1863 1422 
Q 1356 997 1212 845 
Q 1069 694 975 541 
L 3222 541 
z
" transform="scale(0.015625)"/>
       </defs>
       <use xlink:href="#ArialMT-32"/>
       <use xlink:href="#ArialMT-30" x="55.615234"/>
       <use xlink:href="#ArialMT-30" x="111.230469"/>
       <use xlink:href="#ArialMT-30" x="166.845703"/>
      </g>
     </g>
    </g>
    <g id="text_12">
     <!-- Year -->
     <g style="fill: #262626" transform="translate(124.618011 412.471719)scale(0.12 -0.12)">
      <defs>
       <path id="ArialMT-59" d="M 1784 0 
L 1784 1941 
L 19 4581 
L 756 4581 
L 1659 3200 
Q 1909 2813 2125 2425 
Q 2331 2784 2625 3234 
L 3513 4581 
L 4219 4581 
L 2391 1941 
L 2391 0 
L 1784 0 
z
" transform="scale(0.015625)"/>
       <path id="ArialMT-61" d="M 2588 409 
Q 2275 144 1986 34 
Q 1697 -75 1366 -75 
Q 819 -75 525 192 
Q 231 459 231 875 
Q 231 1119 342 1320 
Q 453 1522 633 1644 
Q 813 1766 1038 1828 
Q 1203 1872 1538 1913 
Q 2219 1994 2541 2106 
Q 2544 2222 2544 2253 
Q 2544 2597 2384 2738 
Q 2169 2928 1744 2928 
Q 1347 2928 1158 2789 
Q 969 2650 878 2297 
L 328 2372 
Q 403 2725 575 2942 
Q 747 3159 1072 3276 
Q 1397 3394 1825 3394 
Q 2250 3394 2515 3294 
Q 2781 3194 2906 3042 
Q 3031 2891 3081 2659 
Q 3109 2516 3109 2141 
L 3109 1391 
Q 3109 606 3145 398 
Q 3181 191 3288 0 
L 2700 0 
Q 2613 175 2588 409 
z
M 2541 1666 
Q 2234 1541 1622 1453 
Q 1275 1403 1131 1340 
Q 988 1278 909 1158 
Q 831 1038 831 891 
Q 831 666 1001 516 
Q 1172 366 1500 366 
Q 1825 366 2078 508 
Q 2331 650 2450 897 
Q 2541 1088 2541 1459 
L 2541 1666 
z
" transform="scale(0.015625)"/>
      </defs>
      <use xlink:href="#ArialMT-59"/>
      <use xlink:href="#ArialMT-65" x="57.574219"/>
      <use xlink:href="#ArialMT-61" x="113.189453"/>
      <use xlink:href="#ArialMT-72" x="168.804688"/>
     </g>
    </g>
   </g>
   <g id="matplotlib.axis_6">
    <g id="ytick_9">
     <g id="line2d_23">
      <path d="M 50.179219 372.787812 
L 223.308054 372.787812 
" clip-path="url(#p52fd6b2c8f)" style="fill: none; stroke: #ffffff; stroke-linecap: round"/>
     </g>
     <g id="text_13">
      <!-- 0 -->
      <g style="fill: #262626" transform="translate(34.562188 376.724609)scale(0.11 -0.11)">
       <use xlink:href="#ArialMT-30"/>
      </g>
     </g>
    </g>
    <g id="ytick_10">
     <g id="line2d_24">
      <path d="M 50.179219 328.584312 
L 223.308054 328.584312 
" clip-path="url(#p52fd6b2c8f)" style="fill: none; stroke: #ffffff; stroke-linecap: round"/>
     </g>
     <g id="text_14">
      <!-- 50 -->
      <g style="fill: #262626" transform="translate(28.445156 332.521109)scale(0.11 -0.11)">
       <use xlink:href="#ArialMT-35"/>
       <use xlink:href="#ArialMT-30" x="55.615234"/>
      </g>
     </g>
    </g>
    <g id="ytick_11">
     <g id="line2d_25">
      <path d="M 50.179219 284.380812 
L 223.308054 284.380812 
" clip-path="url(#p52fd6b2c8f)" style="fill: none; stroke: #ffffff; stroke-linecap: round"/>
     </g>
     <g id="text_15">
      <!-- 100 -->
      <g style="fill: #262626" transform="translate(22.328125 288.317609)scale(0.11 -0.11)">
       <use xlink:href="#ArialMT-31"/>
       <use xlink:href="#ArialMT-30" x="55.615234"/>
       <use xlink:href="#ArialMT-30" x="111.230469"/>
      </g>
     </g>
    </g>
    <g id="ytick_12">
     <g id="line2d_26">
      <path d="M 50.179219 240.177312 
L 223.308054 240.177312 
" clip-path="url(#p52fd6b2c8f)" style="fill: none; stroke: #ffffff; stroke-linecap: round"/>
     </g>
     <g id="text_16">
      <!-- 150 -->
      <g style="fill: #262626" transform="translate(22.328125 244.114109)scale(0.11 -0.11)">
       <use xlink:href="#ArialMT-31"/>
       <use xlink:href="#ArialMT-35" x="55.615234"/>
       <use xlink:href="#ArialMT-30" x="111.230469"/>
      </g>
     </g>
    </g>
    <g id="text_17">
     <!-- Occurrences per 1000 theses -->
     <g style="fill: #262626" transform="translate(15.943125 376.144062)rotate(-90)scale(0.12 -0.12)">
      <use xlink:href="#ArialMT-4f"/>
      <use xlink:href="#ArialMT-63" x="77.783203"/>
      <use xlink:href="#ArialMT-63" x="127.783203"/>
      <use xlink:href="#ArialMT-75" x="177.783203"/>
      <use xlink:href="#ArialMT-72" x="233.398438"/>
      <use xlink:href="#ArialMT-72" x="266.699219"/>
      <use xlink:href="#ArialMT-65" x="300"/>
      <use xlink:href="#ArialMT-6e" x="355.615234"/>
      <use xlink:href="#ArialMT-63" x="411.230469"/>
      <use xlink:href="#ArialMT-65" x="461.230469"/>
      <use xlink:href="#ArialMT-73" x="516.845703"/>
      <use xlink:href="#ArialMT-20" x="566.845703"/>
      <use xlink:href="#ArialMT-70" x="594.628906"/>
      <use xlink:href="#ArialMT-65" x="650.244141"/>
      <use xlink:href="#ArialMT-72" x="705.859375"/>
      <use xlink:href="#ArialMT-20" x="739.160156"/>
      <use xlink:href="#ArialMT-31" x="766.943359"/>
      <use xlink:href="#ArialMT-30" x="822.558594"/>
      <use xlink:href="#ArialMT-30" x="878.173828"/>
      <use xlink:href="#ArialMT-30" x="933.789062"/>
      <use xlink:href="#ArialMT-20" x="989.404297"/>
      <use xlink:href="#ArialMT-74" x="1017.1875"/>
      <use xlink:href="#ArialMT-68" x="1044.970703"/>
      <use xlink:href="#ArialMT-65" x="1100.585938"/>
      <use xlink:href="#ArialMT-73" x="1156.201172"/>
      <use xlink:href="#ArialMT-65" x="1206.201172"/>
      <use xlink:href="#ArialMT-73" x="1261.816406"/>
     </g>
    </g>
   </g>
   <g id="line2d_27">
    <path d="M 58.048711 350.119351 
L 59.797487 344.269425 
L 61.546263 358.642692 
L 63.29504 330.108571 
L 65.043816 372.787812 
L 66.792592 361.231342 
L 68.541368 349.973103 
L 70.290144 328.306303 
L 72.03892 363.019083 
L 73.787696 358.373628 
L 75.536472 341.024818 
L 77.285249 337.067812 
L 79.034025 354.927812 
L 80.782801 362.909935 
L 82.531577 336.621312 
L 84.280353 339.841104 
L 86.029129 333.320402 
L 87.777905 333.784724 
L 89.526681 342.9877 
L 91.275457 372.787812 
L 93.024234 353.568899 
L 94.77301 356.858623 
L 96.521786 355.56567 
L 98.270562 355.316073 
L 100.019338 350.808172 
L 101.768114 353.877224 
L 103.51689 332.192761 
L 105.265666 344.39156 
L 107.014442 356.536526 
L 108.763219 342.9877 
L 110.511995 343.801911 
L 112.260771 354.745568 
L 114.009547 344.269425 
L 115.758323 344.269425 
L 117.507099 350.686062 
L 119.255875 351.845376 
L 121.004651 352.138002 
L 122.753427 344.722098 
L 124.502204 355.352557 
L 126.25098 358.020496 
L 127.999756 359.846257 
L 129.748532 349.834571 
L 131.497308 353.554482 
L 133.246084 355.499862 
L 134.99486 347.993206 
L 136.743636 350.629728 
L 138.492412 344.20434 
L 140.241189 345.75579 
L 141.989965 347.454644 
L 143.738741 343.896636 
L 145.487517 342.249657 
L 147.236293 341.662802 
L 148.985069 342.539976 
L 150.733845 338.595444 
L 152.482621 339.008218 
L 154.231397 338.827845 
L 155.980174 339.068202 
L 157.72895 336.499583 
L 159.477726 341.41657 
L 161.226502 339.397781 
L 162.975278 342.223196 
L 164.724054 338.271041 
L 166.47283 335.334325 
L 168.221606 338.724885 
L 169.970383 341.332887 
L 171.719159 336.217274 
L 173.467935 332.969607 
L 175.216711 339.722462 
L 176.965487 338.892139 
L 178.714263 331.330701 
L 180.463039 337.74255 
L 182.211815 335.731531 
L 183.960591 332.136079 
L 185.709368 331.34456 
L 187.458144 331.984582 
L 189.20692 331.357199 
L 190.955696 330.802476 
L 192.704472 331.666626 
L 194.453248 331.830268 
L 196.202024 335.674353 
L 197.9508 330.83024 
L 199.699576 336.275651 
L 201.448353 329.819885 
L 203.197129 330.283284 
L 204.945905 330.852149 
L 206.694681 333.322202 
L 208.443457 333.594785 
L 210.192233 330.305576 
L 211.941009 331.046172 
L 213.689785 330.913947 
L 215.438561 328.526861 
" clip-path="url(#p52fd6b2c8f)" style="fill: none; stroke: #1f77b4; stroke-width: 1.5; stroke-linecap: round"/>
   </g>
   <g id="patch_9">
    <path d="M 50.179219 380.3225 
L 50.179219 214.559375 
" style="fill: none; stroke: #ffffff; stroke-width: 1.25; stroke-linejoin: miter; stroke-linecap: square"/>
   </g>
   <g id="patch_10">
    <path d="M 50.179219 380.3225 
L 223.308054 380.3225 
" style="fill: none; stroke: #ffffff; stroke-width: 1.25; stroke-linejoin: miter; stroke-linecap: square"/>
   </g>
   <g id="text_18">
    <!-- development -->
    <g style="fill: #262626" transform="translate(102.389886 208.559375)scale(0.12 -0.12)">
     <defs>
      <path id="ArialMT-76" d="M 1344 0 
L 81 3319 
L 675 3319 
L 1388 1331 
Q 1503 1009 1600 663 
Q 1675 925 1809 1294 
L 2547 3319 
L 3125 3319 
L 1869 0 
L 1344 0 
z
" transform="scale(0.015625)"/>
      <path id="ArialMT-6c" d="M 409 0 
L 409 4581 
L 972 4581 
L 972 0 
L 409 0 
z
" transform="scale(0.015625)"/>
      <path id="ArialMT-6f" d="M 213 1659 
Q 213 2581 725 3025 
Q 1153 3394 1769 3394 
Q 2453 3394 2887 2945 
Q 3322 2497 3322 1706 
Q 3322 1066 3130 698 
Q 2938 331 2570 128 
Q 2203 -75 1769 -75 
Q 1072 -75 642 372 
Q 213 819 213 1659 
z
M 791 1659 
Q 791 1022 1069 705 
Q 1347 388 1769 388 
Q 2188 388 2466 706 
Q 2744 1025 2744 1678 
Q 2744 2294 2464 2611 
Q 2184 2928 1769 2928 
Q 1347 2928 1069 2612 
Q 791 2297 791 1659 
z
" transform="scale(0.015625)"/>
      <path id="ArialMT-6d" d="M 422 0 
L 422 3319 
L 925 3319 
L 925 2853 
Q 1081 3097 1340 3245 
Q 1600 3394 1931 3394 
Q 2300 3394 2536 3241 
Q 2772 3088 2869 2813 
Q 3263 3394 3894 3394 
Q 4388 3394 4653 3120 
Q 4919 2847 4919 2278 
L 4919 0 
L 4359 0 
L 4359 2091 
Q 4359 2428 4304 2576 
Q 4250 2725 4106 2815 
Q 3963 2906 3769 2906 
Q 3419 2906 3187 2673 
Q 2956 2441 2956 1928 
L 2956 0 
L 2394 0 
L 2394 2156 
Q 2394 2531 2256 2718 
Q 2119 2906 1806 2906 
Q 1569 2906 1367 2781 
Q 1166 2656 1075 2415 
Q 984 2175 984 1722 
L 984 0 
L 422 0 
z
" transform="scale(0.015625)"/>
     </defs>
     <use xlink:href="#ArialMT-64"/>
     <use xlink:href="#ArialMT-65" x="55.615234"/>
     <use xlink:href="#ArialMT-76" x="111.230469"/>
     <use xlink:href="#ArialMT-65" x="161.230469"/>
     <use xlink:href="#ArialMT-6c" x="216.845703"/>
     <use xlink:href="#ArialMT-6f" x="239.0625"/>
     <use xlink:href="#ArialMT-70" x="294.677734"/>
     <use xlink:href="#ArialMT-6d" x="350.292969"/>
     <use xlink:href="#ArialMT-65" x="433.59375"/>
     <use xlink:href="#ArialMT-6e" x="489.208984"/>
     <use xlink:href="#ArialMT-74" x="544.824219"/>
    </g>
   </g>
  </g>
  <g id="axes_4">
   <g id="patch_11">
    <path d="M 241.208509 380.3225 
L 414.337344 380.3225 
L 414.337344 214.559375 
L 241.208509 214.559375 
z
" style="fill: #eaeaf2"/>
   </g>
   <g id="matplotlib.axis_7">
    <g id="xtick_13">
     <g id="line2d_28">
      <path d="M 275.309643 380.3225 
L 275.309643 214.559375 
" clip-path="url(#pc8b642bf33)" style="fill: none; stroke: #ffffff; stroke-linecap: round"/>
     </g>
     <g id="text_19">
      <!-- 1940 -->
      <g style="fill: #262626" transform="translate(263.07558 397.696094)scale(0.11 -0.11)">
       <use xlink:href="#ArialMT-31"/>
       <use xlink:href="#ArialMT-39" x="55.615234"/>
       <use xlink:href="#ArialMT-34" x="111.230469"/>
       <use xlink:href="#ArialMT-30" x="166.845703"/>
      </g>
     </g>
    </g>
    <g id="xtick_14">
     <g id="line2d_29">
      <path d="M 310.285165 380.3225 
L 310.285165 214.559375 
" clip-path="url(#pc8b642bf33)" style="fill: none; stroke: #ffffff; stroke-linecap: round"/>
     </g>
     <g id="text_20">
      <!-- 1960 -->
      <g style="fill: #262626" transform="translate(298.051103 397.696094)scale(0.11 -0.11)">
       <use xlink:href="#ArialMT-31"/>
       <use xlink:href="#ArialMT-39" x="55.615234"/>
       <use xlink:href="#ArialMT-36" x="111.230469"/>
       <use xlink:href="#ArialMT-30" x="166.845703"/>
      </g>
     </g>
    </g>
    <g id="xtick_15">
     <g id="line2d_30">
      <path d="M 345.260687 380.3225 
L 345.260687 214.559375 
" clip-path="url(#pc8b642bf33)" style="fill: none; stroke: #ffffff; stroke-linecap: round"/>
     </g>
     <g id="text_21">
      <!-- 1980 -->
      <g style="fill: #262626" transform="translate(333.026625 397.696094)scale(0.11 -0.11)">
       <use xlink:href="#ArialMT-31"/>
       <use xlink:href="#ArialMT-39" x="55.615234"/>
       <use xlink:href="#ArialMT-38" x="111.230469"/>
       <use xlink:href="#ArialMT-30" x="166.845703"/>
      </g>
     </g>
    </g>
    <g id="xtick_16">
     <g id="line2d_31">
      <path d="M 380.23621 380.3225 
L 380.23621 214.559375 
" clip-path="url(#pc8b642bf33)" style="fill: none; stroke: #ffffff; stroke-linecap: round"/>
     </g>
     <g id="text_22">
      <!-- 2000 -->
      <g style="fill: #262626" transform="translate(368.002147 397.696094)scale(0.11 -0.11)">
       <use xlink:href="#ArialMT-32"/>
       <use xlink:href="#ArialMT-30" x="55.615234"/>
       <use xlink:href="#ArialMT-30" x="111.230469"/>
       <use xlink:href="#ArialMT-30" x="166.845703"/>
      </g>
     </g>
    </g>
    <g id="text_23">
     <!-- Year -->
     <g style="fill: #262626" transform="translate(315.647301 412.471719)scale(0.12 -0.12)">
      <use xlink:href="#ArialMT-59"/>
      <use xlink:href="#ArialMT-65" x="57.574219"/>
      <use xlink:href="#ArialMT-61" x="113.189453"/>
      <use xlink:href="#ArialMT-72" x="168.804688"/>
     </g>
    </g>
   </g>
   <g id="matplotlib.axis_8">
    <g id="ytick_13">
     <g id="line2d_32">
      <path d="M 241.208509 372.787812 
L 414.337344 372.787812 
" clip-path="url(#pc8b642bf33)" style="fill: none; stroke: #ffffff; stroke-linecap: round"/>
     </g>
    </g>
    <g id="ytick_14">
     <g id="line2d_33">
      <path d="M 241.208509 328.584312 
L 414.337344 328.584312 
" clip-path="url(#pc8b642bf33)" style="fill: none; stroke: #ffffff; stroke-linecap: round"/>
     </g>
    </g>
    <g id="ytick_15">
     <g id="line2d_34">
      <path d="M 241.208509 284.380812 
L 414.337344 284.380812 
" clip-path="url(#pc8b642bf33)" style="fill: none; stroke: #ffffff; stroke-linecap: round"/>
     </g>
    </g>
    <g id="ytick_16">
     <g id="line2d_35">
      <path d="M 241.208509 240.177312 
L 414.337344 240.177312 
" clip-path="url(#pc8b642bf33)" style="fill: none; stroke: #ffffff; stroke-linecap: round"/>
     </g>
    </g>
   </g>
   <g id="line2d_36">
    <path d="M 249.078001 372.787812 
L 250.826777 344.269425 
L 252.575553 365.715252 
L 254.324329 360.593744 
L 256.073105 366.039187 
L 257.821882 355.453107 
L 259.570658 361.380458 
L 261.319434 367.227624 
L 263.06821 348.365989 
L 264.816986 353.568899 
L 266.565762 367.49398 
L 268.314538 363.857812 
L 270.063314 354.927812 
L 271.812091 367.848874 
L 273.560867 356.713812 
L 275.309643 356.314458 
L 277.058419 357.000848 
L 278.807195 372.787812 
L 280.555971 362.854442 
L 282.304747 352.695312 
L 284.053523 343.959443 
L 285.802299 364.823218 
L 287.551076 332.602812 
L 289.299852 362.304769 
L 291.048628 353.250354 
L 292.797404 351.513401 
L 294.54618 352.490287 
L 296.294956 355.750061 
L 298.043732 356.536526 
L 299.792508 367.821127 
L 301.541284 361.918099 
L 303.290061 356.549792 
L 305.038837 361.380458 
L 306.787613 365.182909 
L 308.536389 370.946 
L 310.285165 362.316594 
L 312.033941 367.62536 
L 313.782717 363.432574 
L 315.531493 361.506177 
L 317.280269 362.942935 
L 319.029046 355.802021 
L 320.777822 352.79628 
L 322.526598 354.2177 
L 324.275374 352.519181 
L 326.02415 350.02555 
L 327.772926 349.878607 
L 329.521702 349.248482 
L 331.270478 343.605516 
L 333.019254 344.575875 
L 334.768031 344.358895 
L 336.516807 339.94489 
L 338.265583 339.268571 
L 340.014359 344.532348 
L 341.763135 341.883171 
L 343.511911 338.837614 
L 345.260687 344.382045 
L 347.009463 339.752864 
L 348.758239 340.778108 
L 350.507016 340.155414 
L 352.255792 341.695261 
L 354.004568 338.537012 
L 355.753344 336.214722 
L 357.50212 335.054822 
L 359.250896 334.940115 
L 360.999672 334.535424 
L 362.748448 334.525398 
L 364.497225 332.969607 
L 366.246001 334.321348 
L 367.994777 333.706606 
L 369.743553 327.614657 
L 371.492329 333.386094 
L 373.241105 327.81041 
L 374.989881 332.388574 
L 376.738657 330.316387 
L 378.487433 332.961455 
L 380.23621 330.851066 
L 381.984986 332.585924 
L 383.733762 332.660921 
L 385.482538 332.457169 
L 387.231314 334.826418 
L 388.98009 331.712231 
L 390.728866 330.683119 
L 392.477642 330.145893 
L 394.226418 331.673902 
L 395.975195 330.962506 
L 397.723971 333.271799 
L 399.472747 332.852493 
L 401.221523 330.549726 
L 402.970299 333.46988 
L 404.719075 331.555341 
L 406.467851 335.742821 
" clip-path="url(#pc8b642bf33)" style="fill: none; stroke: #1f77b4; stroke-width: 1.5; stroke-linecap: round"/>
   </g>
   <g id="patch_12">
    <path d="M 241.208509 380.3225 
L 241.208509 214.559375 
" style="fill: none; stroke: #ffffff; stroke-width: 1.25; stroke-linejoin: miter; stroke-linecap: square"/>
   </g>
   <g id="patch_13">
    <path d="M 241.208509 380.3225 
L 414.337344 380.3225 
" style="fill: none; stroke: #ffffff; stroke-width: 1.25; stroke-linejoin: miter; stroke-linecap: square"/>
   </g>
   <g id="text_24">
    <!-- analysis -->
    <g style="fill: #262626" transform="translate(306.096989 208.559375)scale(0.12 -0.12)">
     <use xlink:href="#ArialMT-61"/>
     <use xlink:href="#ArialMT-6e" x="55.615234"/>
     <use xlink:href="#ArialMT-61" x="111.230469"/>
     <use xlink:href="#ArialMT-6c" x="166.845703"/>
     <use xlink:href="#ArialMT-79" x="189.0625"/>
     <use xlink:href="#ArialMT-73" x="239.0625"/>
     <use xlink:href="#ArialMT-69" x="289.0625"/>
     <use xlink:href="#ArialMT-73" x="311.279297"/>
    </g>
   </g>
  </g>
 </g>
 <defs>
  <clipPath id="pf7410ea073">
   <rect x="50.179219" y="21.789375" width="173.128835" height="165.763125"/>
  </clipPath>
  <clipPath id="p34b60267ac">
   <rect x="241.208509" y="21.789375" width="173.128835" height="165.763125"/>
  </clipPath>
  <clipPath id="p52fd6b2c8f">
   <rect x="50.179219" y="214.559375" width="173.128835" height="165.763125"/>
  </clipPath>
  <clipPath id="pc8b642bf33">
   <rect x="241.208509" y="214.559375" width="173.128835" height="165.763125"/>
  </clipPath>
 </defs>
</svg>
